<?xml version="1.0" encoding="utf-8"?>
<!-- Generator: Adobe Illustrator 21.1.0, SVG Export Plug-In . SVG Version: 6.00 Build 0)  -->
<svg version="1.1" id="Layer_1" xmlns="http://www.w3.org/2000/svg" xmlns:xlink="http://www.w3.org/1999/xlink" x="0px" y="0px"
	 viewBox="0 0 32 32" style="enable-background:new 0 0 32 32;" xml:space="preserve">
<style type="text/css">
	.st0{fill-rule:evenodd;clip-rule:evenodd;fill:#FFFFFF;}
</style>
<path class="st0" d="M16,0.9C7.4,0.9,0.5,7.8,0.5,16.4c0,6.8,4.4,12.7,10.6,14.7c0.8,0.1,1.1-0.3,1.1-0.7c0-0.4,0-1.3,0-2.6
	c-4.3,0.9-5.2-2.1-5.2-2.1c-0.7-1.8-1.7-2.3-1.7-2.3c-1.4-1,0.1-0.9,0.1-0.9C6.9,22.5,7.7,24,7.7,24c1.4,2.4,3.6,1.7,4.5,1.3
	c0.1-1,0.5-1.7,1-2.1c-3.4-0.4-7.1-1.7-7.1-7.7c0-1.7,0.6-3.1,1.6-4.2C7.5,11,7,9.4,7.9,7.3c0,0,1.3-0.4,4.3,1.6
	c1.2-0.3,2.6-0.5,3.9-0.5c1.3,0,2.6,0.2,3.9,0.5c3-2,4.3-1.6,4.3-1.6c0.8,2.1,0.3,3.7,0.2,4.1c1,1.1,1.6,2.5,1.6,4.2
	c0,6-3.6,7.3-7.1,7.6c0.6,0.5,1.1,1.4,1.1,2.9c0,2.1,0,3.7,0,4.3c0,0.4,0.3,0.9,1.1,0.7c6.2-2.1,10.6-7.9,10.6-14.7
	C31.5,7.8,24.6,0.9,16,0.9z"/>
</svg>
