<?xml version="1.0" encoding="utf-8"?>
<!-- Generator: Adobe Illustrator 21.1.0, SVG Export Plug-In . SVG Version: 6.00 Build 0)  -->
<svg version="1.1" id="Layer_1" xmlns="http://www.w3.org/2000/svg" xmlns:xlink="http://www.w3.org/1999/xlink" x="0px" y="0px"
	 viewBox="0 0 104 27" style="enable-background:new 0 0 104 27;" xml:space="preserve">
<style type="text/css">
	.st0{fill:#FFFFFF;}
</style>
<g>
	<path class="st0" d="M35.8,2v22.5h-3.5v-3.6h-0.1c-0.8,1.4-1.8,2.4-3,3.1c-1.2,0.7-2.7,1-4.3,1c-1.5,0-2.7-0.2-3.7-0.6
		s-1.8-1-2.4-1.7c-0.6-0.7-1-1.6-1.3-2.6c-0.2-1-0.4-2.1-0.4-3.3v-0.7l0,0V9.3c0-1.4-0.4-2.5-1.2-3.3c-0.8-0.8-1.9-1.2-3.4-1.2
		c-1.1,0-2.1,0.2-2.9,0.5C8.8,5.6,8.1,6.1,7.6,6.8C7,7.4,6.6,8.1,6.3,9C6,9.9,5.9,10.8,5.9,11.8v12.7H2.2V2h3.5v3.6h0.1
		c1.5-2.7,4-4.1,7.3-4.1c1.5,0,2.7,0.2,3.7,0.6s1.8,1,2.4,1.7c0.6,0.7,1,1.6,1.3,2.6c0.2,1,0.4,2.1,0.4,3.3v0.7l0,0v6.9
		c0,1.4,0.4,2.5,1.2,3.3c0.8,0.8,1.9,1.2,3.4,1.2c1.1,0,2.1-0.2,2.9-0.5c0.8-0.3,1.5-0.8,2.1-1.5c0.6-0.6,1-1.4,1.2-2.3
		c0.3-0.9,0.4-1.8,0.4-2.8V2H35.8z"/>
	<g>
		<path class="st0" d="M55,23.5c-1.7,1.3-3.8,1.9-6.4,1.9c-1.8,0-3.4-0.3-4.7-0.9c-1.3-0.6-2.4-1.4-3.3-2.4c-0.9-1-1.6-2.3-2-3.8
			c-0.5-1.5-0.7-3-0.8-4.8c0-1.7,0.3-3.3,0.8-4.7s1.3-2.7,2.2-3.7s2.1-1.9,3.4-2.4c1.3-0.6,2.7-0.9,4.3-0.9c2,0,3.7,0.4,5,1.2
			s2.4,1.9,3.2,3.2s1.4,2.7,1.7,4.2s0.4,3,0.4,4.3h-17c0,1,0.1,1.9,0.3,2.8c0.3,0.9,0.7,1.7,1.3,2.4c0.6,0.7,1.3,1.2,2.2,1.6
			s2,0.6,3.2,0.6c1.6,0,2.9-0.4,3.9-1.1c1-0.7,1.7-1.8,2-3.3h3.7C57.8,20.3,56.7,22.2,55,23.5z M54.1,9.1c-0.3-0.8-0.8-1.5-1.4-2
			c-0.6-0.6-1.2-1-2-1.4c-0.8-0.3-1.6-0.5-2.6-0.5c-1,0-1.8,0.2-2.6,0.5c-0.8,0.3-1.4,0.8-2,1.4c-0.6,0.6-1,1.3-1.3,2
			c-0.3,0.8-0.5,1.6-0.6,2.5h12.9C54.6,10.7,54.4,9.9,54.1,9.1z"/>
		<path class="st0" d="M75.8,25v-3.6h-0.1c-0.8,1.4-1.8,2.4-3,3.1c-1.2,0.7-2.7,1-4.3,1c-1.5,0-2.7-0.2-3.7-0.6
			c-1-0.4-1.8-1-2.4-1.7c-0.6-0.7-1-1.6-1.3-2.6c-0.2-1-0.4-2.1-0.4-3.3V2.5h3.7v15.2c0,1.4,0.4,2.5,1.2,3.3
			c0.8,0.8,1.9,1.2,3.4,1.2c1.1,0,2.1-0.2,2.9-0.5c0.8-0.3,1.5-0.8,2.1-1.5c0.6-0.6,1-1.4,1.2-2.2c0.3-0.9,0.4-1.8,0.4-2.8V2.5h3.7
			V25H75.8z"/>
		<path class="st0" d="M98.2,23.5c-1.7,1.3-3.8,1.9-6.4,1.9c-1.8,0-3.4-0.3-4.7-0.9c-1.3-0.6-2.4-1.4-3.3-2.4c-0.9-1-1.6-2.3-2-3.8
			c-0.5-1.5-0.7-3-0.8-4.8c0-1.7,0.3-3.3,0.8-4.7s1.3-2.7,2.2-3.7s2.1-1.9,3.4-2.4c1.3-0.6,2.7-0.9,4.3-0.9c2,0,3.7,0.4,5,1.2
			c1.2,0.9,2.3,2,3.1,3.3c0.8,1.3,1.4,2.7,1.7,4.2c0.3,1.5,0.4,3,0.4,4.3H85c0,1,0.1,1.9,0.3,2.8c0.3,0.9,0.7,1.7,1.3,2.4
			c0.6,0.7,1.3,1.2,2.2,1.6c0.9,0.4,2,0.6,3.2,0.6c1.6,0,2.9-0.4,3.9-1.1s1.7-1.8,2-3.3h3.7C100.9,20.3,99.8,22.2,98.2,23.5z
			 M97.3,9.1c-0.3-0.8-0.8-1.5-1.4-2c-0.6-0.6-1.2-1-2-1.4c-0.8-0.3-1.6-0.5-2.6-0.5s-1.8,0.2-2.6,0.5s-1.4,0.8-2,1.4s-1,1.3-1.3,2
			c-0.3,0.8-0.5,1.6-0.6,2.5h12.9C97.8,10.7,97.6,9.9,97.3,9.1z"/>
	</g>
</g>
</svg>
