<?xml version="1.0" encoding="utf-8"?>
<!-- Generator: Adobe Illustrator 21.1.0, SVG Export Plug-In . SVG Version: 6.00 Build 0)  -->
<svg version="1.1" xmlns="http://www.w3.org/2000/svg" xmlns:xlink="http://www.w3.org/1999/xlink" x="0px" y="0px"
	 viewBox="0 0 102 25" style="enable-background:new 0 0 102 25;" xml:space="preserve">
<style type="text/css">
	.st0{fill:#2DA850;}
	.st1{opacity:0.33;fill:#FFFFFF;}
	.st2{opacity:0.49;fill:#FFFFFF;}
	.st3{fill:none;}
	.st4{fill:url(#SVGID_1_);}
	.st5{fill:url(#SVGID_2_);}
	.st6{fill:url(#SVGID_3_);}
	.st7{fill:url(#SVGID_4_);}
	.st8{opacity:0.73;}
	.st9{fill:url(#SVGID_5_);}
	.st10{fill:url(#SVGID_6_);}
	.st11{fill:url(#SVGID_7_);}
	.st12{fill:url(#SVGID_8_);}
	.st13{fill:url(#SVGID_9_);}
	.st14{fill:url(#SVGID_10_);}
	.st15{fill:url(#SVGID_11_);}
	.st16{fill:url(#SVGID_12_);}
	.st17{fill:url(#SVGID_13_);}
	.st18{fill:url(#SVGID_14_);}
	.st19{fill:url(#SVGID_15_);}
	.st20{fill:url(#SVGID_16_);}
	.st21{fill:url(#SVGID_17_);}
	.st22{fill:url(#SVGID_18_);}
	.st23{fill:url(#SVGID_19_);}
	.st24{fill:url(#SVGID_20_);}
	.st25{fill:url(#SVGID_21_);}
	.st26{opacity:0.55;}
	.st27{fill:url(#SVGID_22_);}
	.st28{fill:url(#SVGID_23_);}
	.st29{fill:url(#SVGID_24_);}
	.st30{fill:url(#SVGID_25_);}
	.st31{fill:url(#SVGID_26_);}
	.st32{fill:url(#SVGID_27_);}
	.st33{fill:url(#SVGID_28_);}
	.st34{fill:url(#SVGID_29_);}
	.st35{fill:url(#SVGID_30_);}
	.st36{fill:url(#SVGID_31_);}
	.st37{fill:url(#SVGID_32_);}
	.st38{fill:url(#SVGID_33_);}
	.st39{fill:url(#SVGID_34_);}
	.st40{fill:url(#SVGID_35_);}
	.st41{fill:url(#SVGID_36_);}
	.st42{fill:url(#SVGID_37_);}
	.st43{fill:url(#SVGID_38_);}
	.st44{fill:#FFFFFF;}
	.st45{fill:#161616;}
</style>
<g id="Layer_3">
</g>
<g id="Layer_2">
	<g>
		<path d="M-1108.6,418.3L-1108.6,418.3c0-0.2,0-0.5,0-0.7V418.3z"/>
		<path class="st0" d="M-1027.6,337.6h-9.3v59.4c0,11.6-2.6,20.8-7.9,27.6c-5.2,6.8-12.4,10.2-21.4,10.2c-8.4,0-14.5-2.2-18.3-6.5
			c-3.2-3.7-5-9.3-5.5-16.9c-0.1-1.3-0.1-2.7-0.1-4.2v-54.7c0,0,0.1-0.1,0.1-0.1v-10.1c0-1.4-0.1-2.7-0.1-4v-0.7h0
			c-0.8-10-4-17.8-9.8-23.6c-6.6-6.6-16.1-10-28.3-10c-12.2,0-22.3,4.7-30.4,14.2l-4.1,5.5v-16.4h-8.9h-8.8V403v15.3h9.3h9.3v-20.9
			v-38.5c0-11.6,2.6-20.8,7.9-27.6c5.2-6.8,12.4-10.2,21.4-10.2c8.4,0,14.5,2.2,18.3,6.5c3.2,3.7,5,9.3,5.5,16.9v24.3v44.8
			c0,1.4,0.1,2.7,0.1,4c0,0.2,0,0.5,0,0.7c0.8,10,4,17.8,9.8,23.6c6.6,6.6,16.1,10,28.3,10c12.2,0,22.3-4.7,30.4-14.2l4.1-5.5v16.4
			h8.9h8.8V337.6H-1027.6z"/>
		<path class="st1" d="M-1090.1,352.5c0,0,0.1-0.1,0.1-0.1v-10.1c0-1.4-0.1-2.7-0.1-4v-0.7h0c-0.8-10-4-17.8-9.8-23.6
			c-6.6-6.6-16.1-10-28.3-10c-12.2,0-22.3,4.7-30.4,14.2l-4.1,5.5v-16.4h-8.9h-8.8V403c6.3-1.6,12.6-3.4,18.7-5.6v-38.5
			c0-11.6,2.6-20.8,7.9-27.6c5.2-6.8,12.4-10.2,21.4-10.2c8.4,0,14.5,2.2,18.3,6.5c3.2,3.7,5,9.3,5.5,16.9v24.3
			C-1102.2,363.7-1096,358.3-1090.1,352.5z"/>
	</g>
	<g>
		<g>
			<path d="M-1492-259.9L-1492-259.9c0-0.3,0-0.5,0-0.8V-259.9z"/>
			<path class="st0" d="M-1403.6-347.9h-10.2v64.8c0,12.7-2.9,22.7-8.6,30.1c-5.7,7.4-13.5,11.1-23.3,11.1c-9.2,0-15.8-2.4-20-7.1
				c-3.5-4-5.5-10.2-6-18.5c-0.1-1.5-0.2-3-0.2-4.5v-59.6c0.1-0.1,0.1-0.1,0.2-0.1v-11.1c0-1.5-0.1-3-0.2-4.4v-0.8h-0.1
				c-0.8-10.9-4.4-19.4-10.7-25.7c-7.2-7.2-17.5-10.9-30.9-10.9c-13.3,0-24.3,5.2-33.1,15.5l-4.5,6v-17.9h-9.7h-9.6v104.3v16.7h10.2
				h10.2v-22.8v-42c0-12.7,2.9-22.7,8.6-30.1c5.7-7.4,13.5-11.1,23.3-11.1c9.2,0,15.8,2.4,20,7.1c3.5,4,5.5,10.2,6,18.5v26.5v48.9
				c0,1.5,0.1,3,0.2,4.4c0,0.3,0,0.5,0,0.8c0.8,10.9,4.4,19.4,10.7,25.7c7.2,7.2,17.5,10.9,30.9,10.9c13.3,0,24.3-5.2,33.1-15.5
				l4.5-6v17.9h9.7h9.6v-121H-1403.6z"/>
			<path class="st1" d="M-1471.8-331.6c0.1-0.1,0.1-0.1,0.2-0.1v-11.1c0-1.5-0.1-3-0.2-4.4v-0.8h-0.1c-0.8-10.9-4.4-19.4-10.7-25.7
				c-7.2-7.2-17.5-10.9-30.9-10.9c-13.3,0-24.3,5.2-33.1,15.5l-4.5,6v-17.9h-9.7h-9.6v104.3c6.9-1.7,13.7-3.7,20.4-6.1v-42
				c0-12.7,2.9-22.7,8.6-30.1c5.7-7.4,13.5-11.1,23.3-11.1c9.2,0,15.8,2.4,20,7.1c3.5,4,5.5,10.2,6,18.5v26.5
				C-1485-319.4-1478.2-325.3-1471.8-331.6z"/>
		</g>
		
			<text transform="matrix(1 0 0 1 -1393.8209 -227.7949)" class="st0" style="font-family:'Helvetica'; font-size:228.47px; letter-spacing:-13;">eue</text>
	</g>
	<g>
		<path d="M-1493-470.1L-1493-470.1c0-0.3,0-0.5,0-0.8V-470.1z"/>
		<path class="st0" d="M-1423.4-463.3c-5.7,7.4-13.5,11.1-23.3,11.1c-9.2,0-15.8-2.4-20-7.1c-3.5-4-5.5-10.2-6-18.5
			c-0.1-1.5-0.2-3-0.2-4.5v-12c-6.9-0.8-13.7-1.5-20.4-2.4v21.2c0,1.5,0.1,3,0.2,4.4c0,0.3,0,0.5,0,0.8c0.8,10.9,4.4,19.4,10.7,25.7
			c7.2,7.2,17.5,10.9,30.9,10.9c13.3,0,24.3-5.2,33.1-15.5l4.5-6v17.9h9.7h9.6V-487c-6.9-0.5-13.8-1.1-20.5-1.6
			C-1415.6-478.2-1418.4-469.7-1423.4-463.3z"/>
		<path class="st0" d="M-1571.4-486.8v16.7h10.2h10.2v-22.8v-11.8c-7-1.2-13.8-2.3-20.4-3.5V-486.8z"/>
		<path class="st0" d="M-1369.2-450.9c9.7,10.7,22.9,16.1,39.8,16.1c14.1,0,25.5-3.4,34.5-10.3c8.9-6.9,14.9-16.9,17.8-30h-19.9
			c-1.3,6.7-4.8,12.2-10.5,16.5c-5.7,4.3-12.4,6.5-20.1,6.5c-12.2,0-21.1-3.8-26.8-11.4c-3.8-5.1-6.3-12.2-7.5-21.2
			c-7.3-0.5-14.4-1-21.5-1.5C-1381.9-471.6-1377.2-459.8-1369.2-450.9z"/>
		<path class="st0" d="M-1196.3-463.3c-5.7,7.5-13.3,11.2-23,11.2c-8.7,0-15-2.2-18.9-6.6c-3.7-4.2-5.6-11.1-5.8-20.5
			c-6.7-0.2-13.4-0.4-20.1-0.6v4.4c0,13.5,3.4,23.7,10.2,30.5c6.8,6.8,16.9,10.2,30.5,10.2c12.9,0,23.6-5.1,32.1-15.3
			c1.6-1.9,3.1-4,4.5-6.1v18.2h9.6h9.5v-39.7c-7.3-0.1-14.6-0.2-21.8-0.3C-1190.9-472.3-1193.2-467.4-1196.3-463.3z"/>
		<path class="st0" d="M-1142.5-450.9c9.7,10.7,22.9,16.1,39.8,16.1c14.1,0,25.5-3.4,34.5-10.3c8.9-6.9,14.9-16.9,17.8-30h-19.9
			c-1.3,6.7-4.8,12.2-10.5,16.5c-5.7,4.3-12.4,6.5-20.1,6.5c-12.2,0-21.1-3.8-26.8-11.4c-2.7-3.7-4.8-8.4-6.2-14.1
			c-7.2,0-14.5,0-21.6-0.1C-1153.2-466.9-1148.9-458-1142.5-450.9z"/>
		<path class="st0" d="M-1472.8-541.8c0.1-0.1,0.1-0.1,0.2-0.1V-553c0-1.5-0.1-3-0.2-4.4v-0.8h0c-0.8-10.9-4.4-19.4-10.7-25.7
			c-7.2-7.2-17.5-10.9-30.9-10.9c-13.3,0-24.3,5.2-33.1,15.5l-4.5,6v-17.9h-9.7h-9.6v82.9c6.5,1.2,13.3,2.4,20.4,3.5v-30.2
			c0-12.7,2.9-22.7,8.6-30.1c5.7-7.4,13.5-11.1,23.3-11.1c9.2,0,15.8,2.4,20,7.1c3.5,4,5.5,10.2,6,18.5v26.5v27.7
			c6.6,0.8,13.4,1.6,20.4,2.4V-541.8z"/>
		<path class="st2" d="M-1472.8-541.8c0.1-0.1,0.1-0.1,0.2-0.1V-553c0-1.5-0.1-3-0.2-4.4v-0.8h0c-0.8-10.9-4.4-19.4-10.7-25.7
			c-7.2-7.2-17.5-10.9-30.9-10.9c-13.3,0-24.3,5.2-33.1,15.5l-4.5,6v-17.9h-9.7h-9.6v82.9c6.5,1.2,13.3,2.4,20.4,3.5v-30.2
			c0-12.7,2.9-22.7,8.6-30.1c5.7-7.4,13.5-11.1,23.3-11.1c9.2,0,15.8,2.4,20,7.1c3.5,4,5.5,10.2,6,18.5v26.5v27.7
			c6.6,0.8,13.4,1.6,20.4,2.4V-541.8z"/>
		<path class="st0" d="M-1404.6-558.2h-10.2v64.8c0,1.6-0.1,3.2-0.1,4.8c6.7,0.6,13.6,1.1,20.5,1.6v-71.2H-1404.6z"/>
		<path class="st2" d="M-1404.6-558.2h-10.2v64.8c0,1.6-0.1,3.2-0.1,4.8c6.7,0.6,13.6,1.1,20.5,1.6v-71.2H-1404.6z"/>
		<path class="st0" d="M-1275.2-490.7l0.2-7.1c0-18.9-4.8-34.1-14.4-45.7c-9.6-11.6-22.2-17.4-37.8-17.4c-17.3,0-31,5.9-41.2,17.8
			c-10.2,11.9-15.3,27.8-15.3,47.9c0,3.2,0.1,6.2,0.4,9.2c7.1,0.5,14.3,1,21.5,1.5c-0.3-1.9-0.5-3.9-0.6-6.1H-1275.2z
			 M-1353.3-531.2c6.3-7.9,14.8-11.8,25.3-11.8c10.5,0,18.4,3.4,23.9,10.3c4.9,6.2,7.7,14.8,8.3,25.9h-66.5
			C-1361.3-516.9-1358.3-525-1353.3-531.2z"/>
		<path class="st2" d="M-1275.2-490.7l0.2-7.1c0-18.9-4.8-34.1-14.4-45.7c-9.6-11.6-22.2-17.4-37.8-17.4c-17.3,0-31,5.9-41.2,17.8
			c-10.2,11.9-15.3,27.8-15.3,47.9c0,3.2,0.1,6.2,0.4,9.2c7.1,0.5,14.3,1,21.5,1.5c-0.3-1.9-0.5-3.9-0.6-6.1H-1275.2z
			 M-1353.3-531.2c6.3-7.9,14.8-11.8,25.3-11.8c10.5,0,18.4,3.4,23.9,10.3c4.9,6.2,7.7,14.8,8.3,25.9h-66.5
			C-1361.3-516.9-1358.3-525-1353.3-531.2z"/>
		<path class="st0" d="M-1177.7-557.4h-10v63.7c0,5.8-0.6,11-1.7,15.7c7.2,0.1,14.5,0.2,21.8,0.3v-79.7H-1177.7z"/>
		<path class="st2" d="M-1177.7-557.4h-10v63.7c0,5.8-0.6,11-1.7,15.7c7.2,0.1,14.5,0.2,21.8,0.3v-79.7H-1177.7z"/>
		<path class="st0" d="M-1243.9-480.5v-77h-10h-10v77.6c6.7,0.2,13.4,0.4,20.1,0.6C-1243.9-479.6-1243.9-480-1243.9-480.5z"/>
		<path class="st2" d="M-1243.9-480.5v-77h-10h-10v77.6c6.7,0.2,13.4,0.4,20.1,0.6C-1243.9-479.6-1243.9-480-1243.9-480.5z"/>
		<path class="st0" d="M-1048.4-490.7l0.2-7.1c0-18.9-4.8-34.1-14.4-45.7c-9.6-11.6-22.2-17.4-37.8-17.4c-17.3,0-31,5.9-41.2,17.8
			c-10.2,11.9-15.3,27.8-15.3,47.9c0,6.3,0.6,12.2,1.6,17.6c7.2,0,14.4,0.1,21.6,0.1c-1-3.9-1.6-8.3-1.9-13.1H-1048.4z
			 M-1126.6-531.2c6.3-7.9,14.8-11.8,25.3-11.8c10.5,0,18.4,3.4,23.9,10.3c4.9,6.2,7.7,14.8,8.3,25.9h-66.5
			C-1134.6-516.9-1131.6-525-1126.6-531.2z"/>
		<path class="st2" d="M-1048.4-490.7l0.2-7.1c0-18.9-4.8-34.1-14.4-45.7c-9.6-11.6-22.2-17.4-37.8-17.4c-17.3,0-31,5.9-41.2,17.8
			c-10.2,11.9-15.3,27.8-15.3,47.9c0,6.3,0.6,12.2,1.6,17.6c7.2,0,14.4,0.1,21.6,0.1c-1-3.9-1.6-8.3-1.9-13.1H-1048.4z
			 M-1126.6-531.2c6.3-7.9,14.8-11.8,25.3-11.8c10.5,0,18.4,3.4,23.9,10.3c4.9,6.2,7.7,14.8,8.3,25.9h-66.5
			C-1134.6-516.9-1131.6-525-1126.6-531.2z"/>
	</g>
	<g>
		<path d="M-1493-692.7L-1493-692.7c0-0.3,0-0.5,0-0.8V-692.7z"/>
		<path class="st0" d="M-1414.8-716c0,1.6-0.1,3.2-0.1,4.8c-0.6,10.4-3.5,18.9-8.4,25.3c-5.7,7.4-13.5,11.1-23.3,11.1
			c-9.2,0-15.8-2.4-20-7.1c-3.5-4-5.5-10.2-6-18.5c-0.1-1.5-0.2-3-0.2-4.5v-12v-29.8c-6.9-0.8-13.7-1.6-20.4-2.5v2.2v27.7v21.2
			c0,1.5,0.1,3,0.2,4.4c0,0.3,0,0.5,0,0.8c0.8,10.9,4.4,19.4,10.7,25.7c7.2,7.2,17.5,10.9,30.9,10.9c13.3,0,24.3-5.2,33.1-15.5
			l4.5-6v17.9h9.7h9.6v-49.8v-30.3c-6.8-0.4-13.6-0.8-20.4-1.3V-716z"/>
		<path class="st0" d="M-1571.4-730.8v21.4v16.7h10.2h10.2v-22.8v-11.8v-30.2c0-0.2,0-0.4,0-0.6c-7-1.3-13.7-2.7-20.4-4.1V-730.8z"
			/>
		<path class="st0" d="M-1295.8-729.5h-66.5c0.3-3.1,0.9-6,1.6-8.8c-6.9-0.3-13.8-0.6-20.6-0.9c-1.5,6.5-2.3,13.6-2.3,21.3
			c0,3.2,0.1,6.2,0.4,9.2c1.4,14.6,6,26.3,14.1,35.2c9.7,10.7,22.9,16.1,39.8,16.1c14.1,0,25.5-3.4,34.5-10.3
			c8.9-6.9,14.9-16.9,17.8-30h-19.9c-1.3,6.7-4.8,12.2-10.5,16.5c-5.7,4.3-12.4,6.5-20.1,6.5c-12.2,0-21.1-3.8-26.8-11.4
			c-3.8-5.1-6.3-12.2-7.5-21.2c-0.3-1.9-0.5-3.9-0.6-6.1h87.2l0.2-7.1c0-6-0.5-11.6-1.5-16.9c-6.7,0.1-13.5,0.1-20.3,0.2
			C-1296.3-734.8-1296-732.2-1295.8-729.5z"/>
		<path class="st0" d="M-1187.8-716.3c0,5.8-0.6,11-1.7,15.7c-1.4,5.7-3.6,10.6-6.7,14.7c-5.7,7.5-13.3,11.2-23,11.2
			c-8.7,0-15-2.2-18.9-6.6c-3.7-4.2-5.6-11.1-5.8-20.5c0-0.4,0-0.8,0-1.2v-35c-6.6,0.2-13.3,0.4-20.1,0.5v35.1v4.4
			c0,13.5,3.4,23.7,10.2,30.5c6.8,6.8,16.9,10.2,30.5,10.2c12.9,0,23.6-5.1,32.1-15.3c1.6-1.9,3.1-4,4.5-6.1v18.2h9.6h9.5v-39.7
			v-42.1c-6.6,0.6-13.3,1.1-20.1,1.5V-716.3z"/>
		<path class="st0" d="M-1069.1-729.5h-66.5c0.6-6.3,2.1-11.8,4.2-16.5c-7.3,0.8-14.6,1.6-22.1,2.3c-2.3,7.7-3.5,16.3-3.5,25.9
			c0,6.3,0.6,12.2,1.6,17.6c2.2,10.7,6.4,19.7,12.9,26.8c9.7,10.7,22.9,16.1,39.8,16.1c14.1,0,25.5-3.4,34.5-10.3
			c8.9-6.9,14.9-16.9,17.8-30h-19.9c-1.3,6.7-4.8,12.2-10.5,16.5c-5.7,4.3-12.4,6.5-20.1,6.5c-12.2,0-21.1-3.8-26.8-11.4
			c-2.7-3.7-4.8-8.4-6.2-14.1c-1-3.9-1.6-8.3-1.9-13.1h87.2l0.2-7.1c0-14.1-2.7-26.2-8.1-36.3c-6.4,1.2-13,2.3-19.7,3.3
			C-1072-747.4-1069.7-739.4-1069.1-729.5z"/>
		<path class="st0" d="M-1472.8-764.4c0.1-0.1,0.1-0.1,0.2-0.2v-11.1c0-1.5-0.1-3-0.2-4.4v-0.8h0c-0.8-10.9-4.4-19.4-10.7-25.7
			c-7.2-7.2-17.5-10.9-30.9-10.9c-13.3,0-24.3,5.2-33.1,15.5l-4.5,6v-17.9h-9.7h-9.6v51.5c6.6,1.4,13.4,2.8,20.4,4.1
			c0.1-12.4,3-22.2,8.6-29.5c5.7-7.4,13.5-11.1,23.3-11.1c9.2,0,15.8,2.4,20,7.1c3.5,4,5.5,10.2,6,18.5v24.2
			c6.7,0.9,13.5,1.7,20.4,2.5V-764.4z"/>
		<path class="st2" d="M-1472.8-764.4c0.1-0.1,0.1-0.1,0.2-0.2v-11.1c0-1.5-0.1-3-0.2-4.4v-0.8h0c-0.8-10.9-4.4-19.4-10.7-25.7
			c-7.2-7.2-17.5-10.9-30.9-10.9c-13.3,0-24.3,5.2-33.1,15.5l-4.5,6v-17.9h-9.7h-9.6v51.5c6.6,1.4,13.4,2.8,20.4,4.1
			c0.1-12.4,3-22.2,8.6-29.5c5.7-7.4,13.5-11.1,23.3-11.1c9.2,0,15.8,2.4,20,7.1c3.5,4,5.5,10.2,6,18.5v24.2
			c6.7,0.9,13.5,1.7,20.4,2.5V-764.4z"/>
		<path class="st0" d="M-1404.6-780.8h-10.2v39.6c6.7,0.5,13.5,0.9,20.4,1.3v-40.9H-1404.6z"/>
		<path class="st2" d="M-1404.6-780.8h-10.2v39.6c6.7,0.5,13.5,0.9,20.4,1.3v-40.9H-1404.6z"/>
		<path class="st0" d="M-1327.1-783.6c-17.3,0-31,5.9-41.2,17.8c-6.3,7.3-10.7,16.2-13.1,26.6c6.8,0.3,13.7,0.6,20.6,0.9
			c1.6-6.1,4-11.3,7.5-15.5c6.3-7.9,14.8-11.8,25.3-11.8c10.5,0,18.4,3.4,23.9,10.3c3.7,4.7,6.2,10.7,7.4,18.2
			c6.8,0,13.6-0.1,20.3-0.2c-2.1-11.3-6.4-20.9-12.9-28.9C-1298.9-777.8-1311.5-783.6-1327.1-783.6z"/>
		<path class="st2" d="M-1327.1-783.6c-17.3,0-31,5.9-41.2,17.8c-6.3,7.3-10.7,16.2-13.1,26.6c6.8,0.3,13.7,0.6,20.6,0.9
			c1.6-6.1,4-11.3,7.5-15.5c6.3-7.9,14.8-11.8,25.3-11.8c10.5,0,18.4,3.4,23.9,10.3c3.7,4.7,6.2,10.7,7.4,18.2
			c6.8,0,13.6-0.1,20.3-0.2c-2.1-11.3-6.4-20.9-12.9-28.9C-1298.9-777.8-1311.5-783.6-1327.1-783.6z"/>
		<path class="st0" d="M-1243.9-780h-10h-10v42.5c6.7-0.1,13.4-0.3,20.1-0.5V-780z"/>
		<path class="st2" d="M-1243.9-780h-10h-10v42.5c6.7-0.1,13.4-0.3,20.1-0.5V-780z"/>
		<path class="st0" d="M-1177.7-780h-10v39.1c6.8-0.5,13.5-1,20.1-1.5V-780H-1177.7z"/>
		<path class="st2" d="M-1177.7-780h-10v39.1c6.8-0.5,13.5-1,20.1-1.5V-780H-1177.7z"/>
		<path class="st0" d="M-1100.4-783.6c-17.3,0-31,5.9-41.2,17.8c-5.4,6.2-9.3,13.6-11.8,22c7.5-0.7,14.8-1.5,22.1-2.3
			c1.3-2.9,2.9-5.5,4.8-7.8c6.3-7.9,14.8-11.8,25.3-11.8c10.5,0,18.4,3.4,23.9,10.3c0.5,0.6,1,1.3,1.4,2c6.7-1.1,13.3-2.2,19.7-3.3
			c-1.8-3.4-3.9-6.5-6.3-9.5C-1072.2-777.8-1084.8-783.6-1100.4-783.6z"/>
		<path class="st2" d="M-1100.4-783.6c-17.3,0-31,5.9-41.2,17.8c-5.4,6.2-9.3,13.6-11.8,22c7.5-0.7,14.8-1.5,22.1-2.3
			c1.3-2.9,2.9-5.5,4.8-7.8c6.3-7.9,14.8-11.8,25.3-11.8c10.5,0,18.4,3.4,23.9,10.3c0.5,0.6,1,1.3,1.4,2c6.7-1.1,13.3-2.2,19.7-3.3
			c-1.8-3.4-3.9-6.5-6.3-9.5C-1072.2-777.8-1084.8-783.6-1100.4-783.6z"/>
	</g>
	<g>
		<g>
			<path d="M1122.6,845.9L1122.6,845.9c0-0.3,0-0.5,0-0.8V845.9z"/>
			<path class="st0" d="M1211,757.9h-10.2v39.6v25.2c0,1.6-0.1,3.2-0.1,4.8c-0.6,10.4-3.5,18.9-8.4,25.3
				c-5.7,7.4-13.5,11.1-23.3,11.1c-9.2,0-15.8-2.4-20-7.1c-3.5-4-5.5-10.2-6-18.5c-0.1-1.5-0.2-3-0.2-4.5v-12v-29.8v-17.9
				c0.1-0.1,0.1-0.1,0.2-0.2V763c0-1.5-0.1-3-0.2-4.4v-0.8h0c-0.8-10.9-4.4-19.4-10.7-25.7c-7.2-7.2-17.5-10.9-30.9-10.9
				c-13.3,0-24.3,5.2-33.1,15.5l-4.5,6v-17.9h-9.7h-9.6v51.5v31.4v21.4v16.7h10.2h10.2v-22.8v-11.8v-30.2c0-0.2,0-0.4,0-0.6
				c0.1-12.4,3-22.2,8.6-29.5c5.7-7.4,13.5-11.1,23.3-11.1c9.2,0,15.8,2.4,20,7.1c3.5,4,5.5,10.2,6,18.5v24.2v2.2v27.7v21.2
				c0,1.5,0.1,3,0.2,4.4c0,0.3,0,0.5,0.1,0.8c0.8,10.9,4.4,19.4,10.7,25.7c7.2,7.2,17.5,10.9,30.9,10.9c13.3,0,24.3-5.2,33.1-15.5
				l4.5-6v17.9h9.7h9.6v-49.8v-30.3v-40.9H1211z"/>
		</g>
		<g>
			<path class="st3" d="M1311.5,783.3c-5.4-6.8-13.4-10.3-23.9-10.3c-10.6,0-19,3.9-25.3,11.8c-3.4,4.3-5.9,9.5-7.5,15.5
				c-0.7,2.7-1.2,5.7-1.6,8.8h66.5c-0.1-2.7-0.4-5.3-0.8-7.7C1317.7,794,1315.2,787.9,1311.5,783.3z"/>
			<path class="st0" d="M1340.7,818.2c0-6-0.5-11.6-1.5-16.9c-2.1-11.3-6.4-20.9-12.9-28.9c-9.6-11.6-22.2-17.4-37.8-17.4
				c-17.3,0-31,5.9-41.2,17.8c-6.3,7.3-10.7,16.2-13.1,26.6c-1.5,6.5-2.3,13.6-2.3,21.3c0,3.2,0.1,6.2,0.4,9.2
				c1.4,14.6,6,26.3,14.1,35.2c9.7,10.7,22.9,16.1,39.8,16.1c14.1,0,25.5-3.4,34.5-10.3c8.9-6.9,14.9-16.9,17.8-30h-19.9
				c-1.3,6.7-4.8,12.2-10.5,16.5c-5.7,4.3-12.4,6.5-20.1,6.5c-12.2,0-21.1-3.8-26.8-11.4c-3.8-5.1-6.3-12.2-7.5-21.2
				c-0.3-1.9-0.5-3.9-0.6-6.1h87.2L1340.7,818.2z M1253.3,809.2c0.3-3.1,0.9-6,1.6-8.8c1.6-6.1,4-11.3,7.5-15.5
				c6.3-7.9,14.8-11.8,25.3-11.8c10.5,0,18.4,3.4,23.9,10.3c3.7,4.7,6.2,10.7,7.4,18.2c0.4,2.4,0.7,5,0.8,7.7H1253.3z"/>
		</g>
		<path class="st0" d="M1437.9,758.6h-10v39.1v24.6c0,5.8-0.6,11-1.7,15.7c-1.4,5.7-3.6,10.6-6.7,14.7c-5.7,7.5-13.3,11.2-23,11.2
			c-8.7,0-15-2.2-18.9-6.6c-3.7-4.2-5.6-11.1-5.8-20.5c0-0.4,0-0.8,0-1.2v-35v-41.9h-10h-10v42.5v35.1v4.4
			c0,13.5,3.4,23.7,10.2,30.5c6.8,6.8,16.9,10.2,30.5,10.2c12.9,0,23.6-5.1,32.1-15.3c1.6-1.9,3.1-4,4.5-6.1V878h9.6h9.5v-39.7
			v-42.1v-37.5H1437.9z"/>
		<g>
			<path class="st3" d="M1538.2,783.3c-5.4-6.8-13.4-10.3-23.9-10.3c-10.6,0-19,3.9-25.3,11.8c-1.9,2.3-3.5,4.9-4.8,7.8
				c-2.2,4.8-3.6,10.3-4.2,16.5h66.5c-0.5-10-2.8-17.9-6.8-23.9C1539.2,784.6,1538.7,783.9,1538.2,783.3z"/>
			<path class="st0" d="M1567.4,818.2c0-14.1-2.7-26.2-8.1-36.3c-1.8-3.4-3.9-6.5-6.3-9.5c-9.6-11.6-22.2-17.4-37.8-17.4
				c-17.3,0-31,5.9-41.2,17.8c-5.4,6.2-9.3,13.6-11.8,22c-2.3,7.7-3.5,16.3-3.5,25.9c0,6.3,0.6,12.2,1.6,17.6
				c2.2,10.7,6.4,19.7,12.9,26.8c9.7,10.7,22.9,16.1,39.8,16.1c14.1,0,25.5-3.4,34.5-10.3c8.9-6.9,14.9-16.9,17.8-30h-19.9
				c-1.3,6.7-4.8,12.2-10.5,16.5c-5.7,4.3-12.4,6.5-20.1,6.5c-12.2,0-21.1-3.8-26.8-11.4c-2.7-3.7-4.8-8.4-6.2-14.1
				c-1-3.9-1.6-8.3-1.9-13.1h87.2L1567.4,818.2z M1480,809.2c0.6-6.3,2.1-11.8,4.2-16.5c1.3-2.9,2.9-5.5,4.8-7.8
				c6.3-7.9,14.8-11.8,25.3-11.8c10.5,0,18.4,3.4,23.9,10.3c0.5,0.6,1,1.3,1.4,2c4,6,6.3,14,6.8,23.9H1480z"/>
		</g>
	</g>
	<ellipse class="st2" cx="1309.4" cy="770.6" rx="290.8" ry="78.1"/>
	<g>
		<path class="st3" d="M-617.7-729.5c-11.6-0.4-23-1-34.1-1.7c-0.1,0.6-0.1,1.1-0.2,1.7H-617.7z"/>
		<path d="M-782.6-692.7L-782.6-692.7c0-0.3,0-0.5,0-0.8V-692.7z"/>
		<path class="st0" d="M-861-762.2v31.4v21.4v16.7h10.2h10.2v-22.8v-11.8v-30.2c0-0.2,0-0.4,0-0.6c0-0.5,0-0.9,0-1.4
			c-7.2-2-14-4.1-20.4-6.3V-762.2z"/>
		<path class="st0" d="M-704.4-716c0,1.6-0.1,3.2-0.1,4.8c-0.6,10.4-3.5,18.9-8.4,25.3c-5.7,7.4-13.5,11.1-23.3,11.1
			c-9.2,0-15.8-2.4-20-7.1c-3.5-4-5.5-10.2-6-18.5c-0.1-1.5-0.2-3-0.2-4.5v-12v-26.2c-7-1.1-13.7-2.2-20.4-3.4v27.3v21.2
			c0,1.5,0.1,3,0.2,4.4c0,0.3,0,0.5,0.1,0.8c0.8,10.9,4.4,19.4,10.7,25.7c7.2,7.2,17.5,10.9,30.9,10.9c13.3,0,24.3-5.2,33.1-15.5
			l4.5-6v17.9h9.7h9.6v-49.8v-24c-6.9-0.6-13.7-1.2-20.4-1.9V-716z"/>
		<path class="st0" d="M-652-729.5c0.1-0.6,0.1-1.1,0.2-1.7c-6.9-0.4-13.8-0.9-20.5-1.4c-0.7,4.6-1,9.5-1,14.7
			c0,3.2,0.1,6.2,0.4,9.2c1.4,14.6,6,26.3,14.1,35.2c9.7,10.7,22.9,16.1,39.8,16.1c14.1,0,25.5-3.4,34.5-10.3
			c8.9-6.9,14.9-16.9,17.8-30h-19.9c-1.3,6.7-4.8,12.2-10.5,16.5c-5.7,4.3-12.4,6.5-20.1,6.5c-12.2,0-21.1-3.8-26.8-11.4
			c-3.8-5.1-6.3-12.2-7.5-21.2c-0.3-1.9-0.5-3.9-0.6-6.1h87.2l0.2-7.1c0-2.7-0.1-5.4-0.3-7.9c-17.9-0.1-35.6-0.4-52.8-1.1H-652z"/>
		<path class="st0" d="M-477.4-716.3c0,5.8-0.6,11-1.7,15.7c-1.4,5.7-3.6,10.6-6.7,14.7c-5.7,7.5-13.3,11.2-23,11.2
			c-8.7,0-15-2.2-18.9-6.6c-3.7-4.2-5.6-11.1-5.8-20.5c0-0.4,0-0.8,0-1.2v-25.5c-6.6,0.1-13.3,0.2-20.1,0.2v25.9v4.4
			c0,13.5,3.4,23.7,10.2,30.5c6.8,6.8,16.9,10.2,30.5,10.2c12.9,0,23.6-5.1,32.1-15.3c1.6-1.9,3.1-4,4.5-6.1v18.2h9.6h9.5v-39.7
			v-31.4c-6.6,0.4-13.3,0.9-20.1,1.2V-716.3z"/>
		<path class="st0" d="M-358.8-729.5h-66.5c0.2-1.7,0.4-3.3,0.7-4.9c-6.9,0.6-13.9,1.2-21,1.8c-0.7,4.6-1,9.5-1,14.7
			c0,6.3,0.6,12.2,1.6,17.6c2.2,10.7,6.4,19.7,12.9,26.8c9.7,10.7,22.9,16.1,39.8,16.1c14.1,0,25.5-3.4,34.5-10.3s14.9-16.9,17.8-30
			h-19.9c-1.3,6.7-4.8,12.2-10.5,16.5c-5.7,4.3-12.4,6.5-20.1,6.5c-12.2,0-21.1-3.8-26.8-11.4c-2.7-3.7-4.8-8.4-6.2-14.1
			c-1-3.9-1.6-8.3-1.9-13.1h87.2l0.2-7.1c0-9.1-1.1-17.4-3.4-24.8c-6.3,1.1-12.8,2.2-19.5,3.2C-359.7-738.3-359-734.1-358.8-729.5z"
			/>
		<path class="st0" d="M-684.1-780.8h-10.2h-10.2v39.6v5.7c6.7,0.7,13.5,1.3,20.4,1.9v-6.3V-780.8z"/>
		<path class="st2" d="M-684.1-780.8h-10.2h-10.2v39.6v5.7c6.7,0.7,13.5,1.3,20.4,1.9v-6.3V-780.8z"/>
		<path class="st0" d="M-762.4-746.5v-17.9c0.1-0.1,0.1-0.1,0.2-0.2v-11.1c0-1.5-0.1-3-0.2-4.4v-0.8h0c-0.8-10.9-4.4-19.4-10.7-25.7
			c-7.2-7.2-17.5-10.9-30.9-10.9c-13.3,0-24.3,5.2-33.1,15.5l-4.5,6v-17.9h-9.7h-9.6v47.9c6.4,2.2,13.2,4.3,20.4,6.3
			c0.3-11.7,3.1-21.1,8.6-28.2c5.7-7.4,13.5-11.1,23.3-11.1c9.2,0,15.8,2.4,20,7.1c3.5,4,5.5,10.2,6,18.5v24.2v2.2v0.4
			c6.6,1.2,13.4,2.4,20.4,3.4V-746.5z"/>
		<path class="st2" d="M-762.4-746.5v-17.9c0.1-0.1,0.1-0.1,0.2-0.2v-11.1c0-1.5-0.1-3-0.2-4.4v-0.8h0c-0.8-10.9-4.4-19.4-10.7-25.7
			c-7.2-7.2-17.5-10.9-30.9-10.9c-13.3,0-24.3,5.2-33.1,15.5l-4.5,6v-17.9h-9.7h-9.6v47.9c6.4,2.2,13.2,4.3,20.4,6.3
			c0.3-11.7,3.1-21.1,8.6-28.2c5.7-7.4,13.5-11.1,23.3-11.1c9.2,0,15.8,2.4,20,7.1c3.5,4,5.5,10.2,6,18.5v24.2v2.2v0.4
			c6.6,1.2,13.4,2.4,20.4,3.4V-746.5z"/>
		<path class="st0" d="M-579-766.2c-9.6-11.6-22.2-17.4-37.8-17.4c-17.3,0-31,5.9-41.2,17.8c-6.3,7.3-10.7,16.2-13.1,26.6
			c-0.5,2.1-0.9,4.3-1.2,6.6c6.8,0.5,13.6,1,20.5,1.4c0.3-2.5,0.8-4.8,1.4-7.1c1.6-6.1,4-11.3,7.5-15.5c6.3-7.9,14.8-11.8,25.3-11.8
			c10.5,0,18.4,3.4,23.9,10.3c3.7,4.7,6.2,10.7,7.4,18.2c0.4,2.4,0.7,5,0.8,7.7h-32.2c17.2,0.7,34.8,1,52.8,1.1
			c-0.2-3.1-0.6-6.1-1.1-8.9C-568.1-748.6-572.4-758.3-579-766.2z"/>
		<path class="st2" d="M-579-766.2c-9.6-11.6-22.2-17.4-37.8-17.4c-17.3,0-31,5.9-41.2,17.8c-6.3,7.3-10.7,16.2-13.1,26.6
			c-0.5,2.1-0.9,4.3-1.2,6.6c6.8,0.5,13.6,1,20.5,1.4c0.3-2.5,0.8-4.8,1.4-7.1c1.6-6.1,4-11.3,7.5-15.5c6.3-7.9,14.8-11.8,25.3-11.8
			c10.5,0,18.4,3.4,23.9,10.3c3.7,4.7,6.2,10.7,7.4,18.2c0.4,2.4,0.7,5,0.8,7.7h-32.2c17.2,0.7,34.8,1,52.8,1.1
			c-0.2-3.1-0.6-6.1-1.1-8.9C-568.1-748.6-572.4-758.3-579-766.2z"/>
		<path class="st0" d="M-457.4-780h-10h-10v39.1v10.4c6.8-0.4,13.5-0.8,20.1-1.2v-10.8V-780z"/>
		<path class="st2" d="M-457.4-780h-10h-10v39.1v10.4c6.8-0.4,13.5-0.8,20.1-1.2v-10.8V-780z"/>
		<path class="st0" d="M-533.5-738.1V-780h-10h-10v42.5v9.1c6.7,0,13.4-0.1,20.1-0.2V-738.1z"/>
		<path class="st2" d="M-533.5-738.1V-780h-10h-10v42.5v9.1c6.7,0,13.4-0.1,20.1-0.2V-738.1z"/>
		<path class="st0" d="M-352.3-766.2c-9.6-11.6-22.2-17.4-37.8-17.4c-17.3,0-31,5.9-41.2,17.8c-5.4,6.2-9.3,13.6-11.8,22
			c-1.1,3.5-1.9,7.3-2.4,11.2c7.1-0.5,14.1-1.1,21-1.8c0.8-4.3,2-8.2,3.6-11.6c1.3-2.9,2.9-5.5,4.8-7.8c6.3-7.9,14.8-11.8,25.3-11.8
			c10.5,0,18.4,3.4,23.9,10.3c0.5,0.6,1,1.3,1.4,2c2.1,3.2,3.8,7,4.9,11.3c6.6-1,13.1-2.1,19.5-3.2c-1.2-4.1-2.8-7.9-4.7-11.5
			C-347.7-760.1-349.8-763.3-352.3-766.2z"/>
		<path class="st2" d="M-352.3-766.2c-9.6-11.6-22.2-17.4-37.8-17.4c-17.3,0-31,5.9-41.2,17.8c-5.4,6.2-9.3,13.6-11.8,22
			c-1.1,3.5-1.9,7.3-2.4,11.2c7.1-0.5,14.1-1.1,21-1.8c0.8-4.3,2-8.2,3.6-11.6c1.3-2.9,2.9-5.5,4.8-7.8c6.3-7.9,14.8-11.8,25.3-11.8
			c10.5,0,18.4,3.4,23.9,10.3c0.5,0.6,1,1.3,1.4,2c2.1,3.2,3.8,7,4.9,11.3c6.6-1,13.1-2.1,19.5-3.2c-1.2-4.1-2.8-7.9-4.7-11.5
			C-347.7-760.1-349.8-763.3-352.3-766.2z"/>
	</g>
	<linearGradient id="SVGID_1_" gradientUnits="userSpaceOnUse" x1="-770.2819" y1="-383.6016" x2="-770.2819" y2="-544.7832">
		<stop  offset="0" style="stop-color:#8CC63F"/>
		<stop  offset="1" style="stop-color:#39B54A"/>
	</linearGradient>
	<path class="st4" d="M-692-508.2h-10.2v39.6v8.5v16.7c0,1.6-0.1,3.2-0.1,4.8c-0.6,10.4-3.5,18.9-8.4,25.3
		c-5.7,7.4-13.5,11.1-23.3,11.1c-9.2,0-15.8-2.4-20-7.1c-3.5-4-5.5-10.2-6-18.5c-0.1-1.5-0.2-3-0.2-4.5v-12v-22.1v-7.6v-17.9
		c0.1-0.1,0.1-0.1,0.2-0.2v-11.1c0-1.5-0.1-3-0.2-4.4v-0.8h0c-0.8-10.9-4.4-19.4-10.7-25.7c-7.2-7.2-17.5-10.9-30.9-10.9
		c-13.3,0-24.3,5.2-33.1,15.5l-4.5,6v-17.9h-9.7h-9.6v51.5v1.3v30v21.4v16.7h10.2h10.2v-22.8v-11.8V-482v-3c0-0.2,0-0.4,0-0.6
		c0.1-12.4,3-22.2,8.6-29.5c5.7-7.4,13.5-11.1,23.3-11.1c9.2,0,15.8,2.4,20,7.1c3.5,4,5.5,10.2,6,18.5v24.2v2.2v4.8v22.9v21.2
		c0,1.5,0.1,3,0.2,4.4v0.8h0.1c0.8,10.9,4.4,19.4,10.7,25.7c7.2,7.2,17.5,10.9,30.9,10.9c13.3,0,24.3-5.2,33.1-15.5l4.5-6v17.9h9.7
		h9.6V-437v-21.8v-8.6v-40.9H-692z"/>
	<linearGradient id="SVGID_2_" gradientUnits="userSpaceOnUse" x1="-616.6988" y1="-384.8633" x2="-616.6988" y2="-511.0352">
		<stop  offset="0" style="stop-color:#8CC63F"/>
		<stop  offset="1" style="stop-color:#39B54A"/>
	</linearGradient>
	<path class="st5" d="M-562.3-447.9c0-3.5-0.2-6.8-0.5-10c-0.2-2.3-0.5-4.6-0.9-6.8c-2.1-11.3-6.4-20.9-12.9-28.9
		c-9.6-11.6-22.2-17.4-37.8-17.4c-17.3,0-31,5.9-41.2,17.8c-6.3,7.3-10.7,16.2-13.1,26.6c-0.6,2.7-1.1,5.5-1.5,8.5
		c-0.5,4.1-0.8,8.3-0.8,12.8c0,3.2,0.1,6.2,0.4,9.2c1.4,14.6,6,26.3,14.1,35.2c9.7,10.7,22.9,16.1,39.8,16.1
		c14.1,0,25.5-3.4,34.5-10.3c8.9-6.9,14.9-16.9,17.8-30h-19.9c-1.3,6.7-4.8,12.2-10.5,16.5c-5.7,4.3-12.4,6.5-20.1,6.5
		c-12.2,0-21.1-3.8-26.8-11.4c-3.8-5.1-6.3-12.2-7.5-21.2c-0.3-1.9-0.5-3.9-0.6-6.1h87.2L-562.3-447.9z M-597.3-456.9h-33.9h-18.5
		c0-0.1,0-0.3,0-0.4c0.3-3,0.8-5.7,1.5-8.4c1.6-6.1,4-11.3,7.5-15.5c6.3-7.9,14.8-11.8,25.3-11.8c10.5,0,18.4,3.4,23.9,10.3
		c3.7,4.7,6.2,10.7,7.4,18.2c0.4,2.3,0.7,4.8,0.8,7.4c0,0.1,0,0.2,0,0.3H-597.3z"/>
	<linearGradient id="SVGID_3_" gradientUnits="userSpaceOnUse" x1="-503.232" y1="-384.8633" x2="-503.232" y2="-507.4648">
		<stop  offset="0" style="stop-color:#8CC63F"/>
		<stop  offset="1" style="stop-color:#39B54A"/>
	</linearGradient>
	<path class="st6" d="M-465.1-507.5h-10v39.1v3v21.6c0,5.8-0.6,11-1.7,15.7c-1.4,5.7-3.6,10.6-6.7,14.7c-5.7,7.5-13.3,11.2-23,11.2
		c-8.7,0-15-2.2-18.9-6.6c-3.7-4.2-5.6-11.1-5.8-20.5c0-0.4,0-0.8,0-1.2v-29.3v-5.8v-41.9h-10h-10v42.5v6.5v28.6v4.4
		c0,13.5,3.4,23.7,10.2,30.5c6.8,6.8,16.9,10.2,30.5,10.2c12.9,0,23.6-5.1,32.1-15.3c1.6-1.9,3.1-4,4.5-6.1v18.2h9.6h9.5v-39.7
		v-40.5v-1.6v-37.5H-465.1z"/>
	<linearGradient id="SVGID_4_" gradientUnits="userSpaceOnUse" x1="-389.9869" y1="-384.8633" x2="-389.9869" y2="-511.0352">
		<stop  offset="0" style="stop-color:#8CC63F"/>
		<stop  offset="1" style="stop-color:#39B54A"/>
	</linearGradient>
	<path class="st7" d="M-335.6-447.9c0-14.1-2.7-26.2-8.1-36.3c-1.8-3.4-3.9-6.5-6.3-9.5c-0.5-0.6-1-1.2-1.5-1.7
		c-9.4-10.4-21.5-15.7-36.3-15.7c-17.3,0-31,5.9-41.2,17.8c-5.4,6.2-9.3,13.6-11.8,22c-0.1,0.2-0.1,0.4-0.1,0.5
		c-2.2,7.6-3.3,16-3.3,25.3c0,6.3,0.6,12.2,1.6,17.6c2.2,10.7,6.4,19.7,12.9,26.8c9.7,10.7,22.9,16.1,39.8,16.1
		c14.1,0,25.5-3.4,34.5-10.3c8.9-6.9,14.9-16.9,17.8-30h-19.9c-1.3,6.7-4.8,12.2-10.5,16.5c-5.7,4.3-12.4,6.5-20.1,6.5
		c-12.2,0-21.1-3.8-26.8-11.4c-2.7-3.7-4.8-8.4-6.2-14.1c-1-3.9-1.6-8.3-1.9-13.1h87.2L-335.6-447.9z M-423-456.9
		c0.6-6.3,2.1-11.8,4.2-16.5c0.3-0.6,0.6-1.2,0.9-1.8c1.1-2.2,2.4-4.2,3.9-6c6.3-7.9,14.8-11.8,25.3-11.8c7.3,0,13.4,1.7,18.2,5
		c2.1,1.4,4,3.2,5.6,5.3c0.5,0.6,1,1.3,1.4,2c4,6,6.3,14,6.8,23.9H-423z"/>
	<g class="st8">
		<path class="st2" d="M-681.8-508.2H-692h-10.2v39.6v8.5c6.7,0.5,13.5,1,20.4,1.4v-8.6V-508.2z"/>
		<path class="st2" d="M-760.2-474v-17.9c0.1-0.1,0.1-0.1,0.2-0.2v-11.1c0-1.5-0.1-3-0.2-4.4v-0.8h0c-0.8-10.9-4.4-19.4-10.7-25.7
			c-7.2-7.2-17.5-10.9-30.9-10.9c-13.3,0-24.3,5.2-33.1,15.5l-4.5,6v-17.9h-9.7h-9.6v51.5v1.3c6.4,2.2,13.2,4.3,20.4,6.3v-3
			c0-0.2,0-0.4,0-0.6c0.1-12.4,3-22.2,8.6-29.5c5.7-7.4,13.5-11.1,23.3-11.1c9.2,0,15.8,2.4,20,7.1c3.5,4,5.5,10.2,6,18.5v24.2v2.2
			v4.8c6.6,1.1,13.4,2.2,20.4,3.1V-474z"/>
		<path class="st2" d="M-576.7-493.6c-9.6-11.6-22.2-17.4-37.8-17.4c-17.3,0-31,5.9-41.2,17.8c-6.3,7.3-10.7,16.2-13.1,26.6
			c-0.6,2.7-1.1,5.5-1.5,8.5c6.8,0.3,13.7,0.6,20.6,0.8c0.3-3,0.8-5.7,1.5-8.4c1.6-6.1,4-11.3,7.5-15.5c6.3-7.9,14.8-11.8,25.3-11.8
			c10.5,0,18.4,3.4,23.9,10.3c3.7,4.7,6.2,10.7,7.4,18.2c0.4,2.3,0.7,4.8,0.8,7.4c6.9-0.2,13.7-0.4,20.4-0.7
			c-0.2-2.3-0.5-4.6-0.9-6.8C-565.8-476.1-570.2-485.7-576.7-493.6z"/>
		<path class="st2" d="M-531.3-465.5v-41.9h-10h-10v42.5v6.5c6.8-0.4,13.5-0.8,20.1-1.3V-465.5z"/>
		<path class="st2" d="M-455.1-507.5h-10h-10v39.1v3c6.8-0.9,13.5-1.9,20.1-2.9v-1.6V-507.5z"/>
		<path class="st2" d="M-387.8-511c-17.3,0-31,5.9-41.2,17.8c-5.4,6.2-9.3,13.6-11.8,22c-0.1,0.2-0.1,0.4-0.1,0.5
			c8-1.4,15.7-2.9,23.1-4.5c1.1-2.2,2.4-4.2,3.9-6c6.3-7.9,14.8-11.8,25.3-11.8c7.3,0,13.4,1.7,18.2,5c6.8-2.3,13.1-4.8,18.9-7.3
			C-360.9-505.8-373-511-387.8-511z"/>
	</g>
	<linearGradient id="SVGID_5_" gradientUnits="userSpaceOnUse" x1="-428.9556" y1="882.4648" x2="-428.9556" y2="754.2832">
		<stop  offset="0" style="stop-color:#8CC63F"/>
		<stop  offset="1" style="stop-color:#39B54A"/>
	</linearGradient>
	<path class="st9" d="M-350.7,757.8h-10.2v39.6v8.5v16.7c0,1.6-0.1,3.2-0.1,4.8c-0.6,10.4-3.5,18.9-8.4,25.3
		c-5.7,7.4-13.5,11.1-23.3,11.1c-9.2,0-15.8-2.4-20-7.1c-3.5-4-5.5-13.2-6-21.5c-0.1-1.5-0.2-3-0.2-4.5v-12v26.9v-10.6v-17.9
		c0.1-0.1,0.1-0.1,0.2-0.2V796c0-1.5-0.1-3-0.2-4.4v-0.8h0c-0.8-10.9-4.4-19.4-10.7-25.7c-7.2-7.2-17.5-10.9-30.9-10.9
		c-13.3,0-24.3,5.2-33.1,15.5l-4.5,6v-17.9h-9.7h-9.6v51.5v1.3v30v21.4v16.7h10.2h10.2v-22.8v-11.8v-27.3v-2.9c0-0.2,0-0.4,0-0.6
		c0.1-12.4,3-22.2,8.6-29.5c5.7-7.4,13.5-11.1,23.3-11.1c9.2,0,15.8,2.4,20,7.1c3.5,4,5.5,10.2,6,18.5v34.2v2.2v7.8v-26.1v24.2
		c0,1.5,0.1,3,0.2,4.4v0.8h0.1c0.8,10.9,4.4,19.4,10.7,25.7c7.2,7.2,17.5,10.9,30.9,10.9c13.3,0,24.3-5.2,33.1-15.5l4.5-6v17.9h9.7
		h9.6v-49.8v-21.8v-8.6v-40.9H-350.7z"/>
	<linearGradient id="SVGID_6_" gradientUnits="userSpaceOnUse" x1="-275.3727" y1="881.2031" x2="-275.3727" y2="755.0313">
		<stop  offset="0" style="stop-color:#8CC63F"/>
		<stop  offset="1" style="stop-color:#39B54A"/>
	</linearGradient>
	<path class="st10" d="M-221,818.2c0-3.5-0.2-6.8-0.5-10c-0.2-2.3-0.5-4.6-0.9-6.8c-2.1-11.3-6.4-20.9-12.9-28.9
		c-9.6-11.6-22.2-17.4-37.8-17.4c-17.3,0-31,5.9-41.2,17.8c-6.3,7.3-10.7,16.2-13.1,26.6c-0.6,2.7-1.1,5.5-1.5,8.5
		c-0.5,4.1-0.8,8.3-0.8,12.8c0,3.2,0.1,6.2,0.4,9.2c1.4,14.6,6,26.3,14.1,35.2c9.7,10.7,22.9,16.1,39.8,16.1
		c14.1,0,25.5-3.4,34.5-10.3c8.9-6.9,14.9-16.9,17.8-30H-243c-1.3,6.7-4.8,12.2-10.5,16.5c-5.7,4.3-12.4,6.5-20.1,6.5
		c-12.2,0-21.1-3.8-26.8-11.4c-3.8-5.1-6.3-12.2-7.5-21.2c-0.3-1.9-0.5-3.9-0.6-6.1h87.2L-221,818.2z M-256,809.1h-33.9h-18.5
		c0-0.1,0-0.3,0-0.4c0.3-3,0.8-5.7,1.5-8.4c1.6-6.1,4-11.3,7.5-15.5c6.3-7.9,14.8-11.8,25.3-11.8c10.5,0,18.4,3.4,23.9,10.3
		c3.7,4.7,6.2,10.7,7.4,18.2c0.4,2.3,0.7,4.8,0.8,7.4c0,0.1,0,0.2,0,0.3H-256z"/>
	<linearGradient id="SVGID_7_" gradientUnits="userSpaceOnUse" x1="-161.9058" y1="881.2031" x2="-161.9058" y2="758.6016">
		<stop  offset="0" style="stop-color:#8CC63F"/>
		<stop  offset="1" style="stop-color:#39B54A"/>
	</linearGradient>
	<path class="st11" d="M-123.8,758.6h-10v39.1v3v21.6c0,5.8-0.6,11-1.7,15.7c-1.4,5.7-3.6,10.6-6.7,14.7c-5.7,7.5-13.3,11.2-23,11.2
		c-8.7,0-15-2.2-18.9-6.6c-3.7-4.2-5.6-11.1-5.8-20.5c0-0.4,0-0.8,0-1.2v-29.3v-5.8v-41.9h-10h-10v42.5v6.5v28.6v4.4
		c0,13.5,3.4,23.7,10.2,30.5c6.8,6.8,16.9,10.2,30.5,10.2c12.9,0,23.6-5.1,32.1-15.3c1.6-1.9,3.1-4,4.5-6.1V878h9.6h9.5v-39.7v-40.5
		v-1.6v-37.5H-123.8z"/>
	<linearGradient id="SVGID_8_" gradientUnits="userSpaceOnUse" x1="-48.6605" y1="881.2031" x2="-48.6605" y2="755.0313">
		<stop  offset="0" style="stop-color:#8CC63F"/>
		<stop  offset="1" style="stop-color:#39B54A"/>
	</linearGradient>
	<path class="st12" d="M5.7,818.2c0-14.1-2.7-26.2-8.1-36.3c-1.8-3.4-3.9-6.5-6.3-9.5c-0.5-0.6-1-1.2-1.5-1.7
		c-9.4-10.4-21.5-15.7-36.3-15.7c-17.3,0-31,5.9-41.2,17.8c-5.4,6.2-9.3,13.6-11.8,22c-0.1,0.2-0.1,0.4-0.1,0.5
		c-2.2,7.6-3.3,16-3.3,25.3c0,6.3,0.6,12.2,1.6,17.6c2.2,10.7,6.4,19.7,12.9,26.8c9.7,10.7,22.9,16.1,39.8,16.1
		c14.1,0,25.5-3.4,34.5-10.3c8.9-6.9,14.9-16.9,17.8-30h-19.9c-1.3,6.7-4.8,12.2-10.5,16.5c-5.7,4.3-12.4,6.5-20.1,6.5
		c-12.2,0-21.1-3.8-26.8-11.4c-2.7-3.7-4.8-8.4-6.2-14.1c-1-3.9-1.6-8.3-1.9-13.1H5.5L5.7,818.2z M-81.7,809.1
		c0.6-6.3,2.1-11.8,4.2-16.5c0.3-0.6,0.6-1.2,0.9-1.8c1.1-2.2,2.4-4.2,3.9-6c6.3-7.9,14.8-11.8,25.3-11.8c7.3,0,13.4,1.7,18.2,5
		c2.1,1.4,4,3.2,5.6,5.3c0.5,0.6,1,1.3,1.4,2c4,6,6.3,14,6.8,23.9H-81.7z"/>
	<ellipse class="st2" cx="-262.8" cy="736.9" rx="309" ry="73"/>
	<g>
		<g>
			<linearGradient id="SVGID_9_" gradientUnits="userSpaceOnUse" x1="40.0314" y1="-360.294" x2="40.3346" y2="-360.294">
				<stop  offset="0" style="stop-color:#8CC63F"/>
				<stop  offset="0.2291" style="stop-color:#88C53F"/>
				<stop  offset="0.445" style="stop-color:#7DC33D"/>
				<stop  offset="0.6556" style="stop-color:#6AC03B"/>
				<stop  offset="0.8618" style="stop-color:#4FBC38"/>
				<stop  offset="1" style="stop-color:#39B836"/>
			</linearGradient>
			<path class="st13" d="M40.3-360.3c-0.1,0-0.2,0-0.3,0c0,0,0,0,0,0H40.3z"/>
			<linearGradient id="SVGID_10_" gradientUnits="userSpaceOnUse" x1="-18.5619" y1="-345.714" x2="-18.5619" y2="-345.714">
				<stop  offset="0" style="stop-color:#8CC63F"/>
				<stop  offset="0.2291" style="stop-color:#88C53F"/>
				<stop  offset="0.445" style="stop-color:#7DC33D"/>
				<stop  offset="0.6556" style="stop-color:#6AC03B"/>
				<stop  offset="0.8618" style="stop-color:#4FBC38"/>
				<stop  offset="1" style="stop-color:#39B836"/>
			</linearGradient>
			<line class="st14" x1="-18.6" y1="-346.1" x2="-18.6" y2="-345.3"/>
			<linearGradient id="SVGID_11_" gradientUnits="userSpaceOnUse" x1="-47.4892" y1="-327.4395" x2="-47.4892" y2="-384.8622">
				<stop  offset="0" style="stop-color:#8CC63F"/>
				<stop  offset="0.2291" style="stop-color:#88C53F"/>
				<stop  offset="0.445" style="stop-color:#7DC33D"/>
				<stop  offset="0.6556" style="stop-color:#6AC03B"/>
				<stop  offset="0.8618" style="stop-color:#4FBC38"/>
				<stop  offset="1" style="stop-color:#39B836"/>
			</linearGradient>
			<path class="st15" d="M-53.6-360.2v0.6v13.5v9.6v7.5h4.6h4.6v-10.2v-5.3v-12.2v-1.3c0-0.1,0-0.2,0-0.3c0-5,1.1-9,3.1-12.2
				c-4.4-1.1-8.5-2.3-12.2-3.6V-360.2z"/>
			<linearGradient id="SVGID_12_" gradientUnits="userSpaceOnUse" x1="3.5197" y1="-327.4395" x2="3.5197" y2="-384.8629">
				<stop  offset="0" style="stop-color:#8CC63F"/>
				<stop  offset="0.2291" style="stop-color:#88C53F"/>
				<stop  offset="0.445" style="stop-color:#7DC33D"/>
				<stop  offset="0.6556" style="stop-color:#6AC03B"/>
				<stop  offset="0.8618" style="stop-color:#4FBC38"/>
				<stop  offset="1" style="stop-color:#39B836"/>
			</linearGradient>
			<path class="st16" d="M16.5-354.2c0,0.7,0,1.5-0.1,2.1c-0.3,4.7-1.6,8.5-3.8,11.4c-2.6,3.3-6,5-10.4,5c-4.1,0-7.1-1.1-8.9-3.2
				c-1.6-1.8-2.5-5.9-2.7-9.6c0-0.7-0.1-1.3-0.1-2v-5.4v-0.7c0,0,0-2.3,0-2.3l0.1-5.4c-3.2-0.4-6.2-0.9-9.2-1.4c0,0.2,0,0.5,0.1,0.7
				v8.1v7.2v1v2.6c0,0.7,0,1.3,0.1,2v0.4h0c0.4,4.9,2,8.7,4.8,11.5c3.2,3.2,7.9,4.9,13.8,4.9c5.9,0,10.9-2.3,14.8-6.9l2-2.7v8h4.4
				h4.3v-22.3v-9.6c-3.1-0.2-6.1-0.4-9.1-0.6V-354.2z"/>
			<linearGradient id="SVGID_13_" gradientUnits="userSpaceOnUse" x1="54.8331" y1="-328.0049" x2="54.8331" y2="-384.5283">
				<stop  offset="0" style="stop-color:#8CC63F"/>
				<stop  offset="0.2291" style="stop-color:#88C53F"/>
				<stop  offset="0.445" style="stop-color:#7DC33D"/>
				<stop  offset="0.6556" style="stop-color:#6AC03B"/>
				<stop  offset="0.8618" style="stop-color:#4FBC38"/>
				<stop  offset="1" style="stop-color:#39B836"/>
			</linearGradient>
			<path class="st17" d="M40.3-360.3H40c0,0,0,0,0,0c-3.1-0.1-6.2-0.2-9.2-0.4c-0.2,1.8-0.3,3.6-0.3,5.6c0,1.4,0.1,2.8,0.2,4.1
				c0.6,6.5,2.7,11.8,6.3,15.8c4.3,4.8,10.3,7.2,17.8,7.2c6.3,0,11.4-1.5,15.4-4.6c4-3.1,6.7-7.6,8-13.4h-8.9
				c-0.6,3-2.1,5.5-4.7,7.4c-2.6,1.9-5.6,2.9-9,2.9c-5.5,0-9.5-1.7-12-5.1c-1.7-2.3-2.8-5.5-3.4-9.5c-0.1-0.9-0.2-1.8-0.3-2.7h39.1
				l0.1-3.2c0-1.4-0.1-2.7-0.2-4c-6.1,0.2-12.3,0.3-18.6,0.3C53.6-359.9,46.9-360.1,40.3-360.3z"/>
			<linearGradient id="SVGID_14_" gradientUnits="userSpaceOnUse" x1="-31.4875" y1="-327.4392" x2="-31.4875" y2="-384.8633">
				<stop  offset="0" style="stop-color:#8CC63F"/>
				<stop  offset="0.2291" style="stop-color:#88C53F"/>
				<stop  offset="0.445" style="stop-color:#7DC33D"/>
				<stop  offset="0.6556" style="stop-color:#6AC03B"/>
				<stop  offset="0.8618" style="stop-color:#4FBC38"/>
				<stop  offset="1" style="stop-color:#39B836"/>
			</linearGradient>
			<path class="st18" d="M-9.4-366.2c0-0.7,0-1.3-0.1-2v-0.4h0c-0.4-4.9-2-8.7-4.8-11.5c-3.2-3.2-7.9-4.9-13.8-4.9
				c-5.9,0-10.9,2.3-14.8,6.9l-2,2.7v-8h-4.4h-4.3v9.1c3.7,1.3,7.8,2.5,12.2,3.6c0.2-0.4,0.5-0.7,0.7-1.1c2.6-3.3,6-5,10.4-5
				c4.1,0,7.1,1.1,8.9,3.2c1.5,1.7,2.3,4.2,2.6,7.6c3,0.5,6.1,1,9.2,1.4V-366.2z"/>
			<linearGradient id="SVGID_15_" gradientUnits="userSpaceOnUse" x1="21.1024" y1="-327.4382" x2="21.1024" y2="-384.8636">
				<stop  offset="0" style="stop-color:#8CC63F"/>
				<stop  offset="0.2291" style="stop-color:#88C53F"/>
				<stop  offset="0.445" style="stop-color:#7DC33D"/>
				<stop  offset="0.6556" style="stop-color:#6AC03B"/>
				<stop  offset="0.8618" style="stop-color:#4FBC38"/>
				<stop  offset="1" style="stop-color:#39B836"/>
			</linearGradient>
			<path class="st19" d="M25.7-364.9v-18.3h-4.6h-4.6v17.7v3.8v0.1c3,0.2,6,0.4,9.1,0.6v-0.1V-364.9z"/>
			<linearGradient id="SVGID_16_" gradientUnits="userSpaceOnUse" x1="54.9073" y1="-328.0059" x2="54.9073" y2="-384.5274">
				<stop  offset="0" style="stop-color:#8CC63F"/>
				<stop  offset="0.2291" style="stop-color:#88C53F"/>
				<stop  offset="0.445" style="stop-color:#7DC33D"/>
				<stop  offset="0.6556" style="stop-color:#6AC03B"/>
				<stop  offset="0.8618" style="stop-color:#4FBC38"/>
				<stop  offset="1" style="stop-color:#39B836"/>
			</linearGradient>
			<path class="st20" d="M78.5-363.8c-0.9-5.1-2.9-9.4-5.8-12.9c-4.3-5.2-9.9-7.8-16.9-7.8c-7.7,0-13.9,2.7-18.5,8
				c-2.8,3.3-4.8,7.3-5.9,11.9c-0.3,1.2-0.5,2.5-0.7,3.8c0,0,0,0.1,0,0.1c3,0.2,6.1,0.3,9.2,0.4c0-0.1,0-0.1,0-0.2
				c0.1-1.3,0.4-2.6,0.7-3.8c0.7-2.7,1.8-5.1,3.3-7c2.8-3.5,6.6-5.3,11.3-5.3c4.7,0,8.3,1.5,10.7,4.6c1.7,2.1,2.8,4.8,3.3,8.2
				c0.2,1,0.3,2.1,0.4,3.3c0,0,0,0.1,0,0.1h-6.3H48.3h-8c6.6,0.2,13.3,0.3,20.1,0.3c6.3,0,12.5-0.1,18.6-0.3c0-0.2,0-0.3,0-0.5
				C78.9-361.8,78.7-362.8,78.5-363.8z"/>
			<linearGradient id="SVGID_17_" gradientUnits="userSpaceOnUse" x1="105.6639" y1="-328.0049" x2="105.6639" y2="-382.9289">
				<stop  offset="0" style="stop-color:#8CC63F"/>
				<stop  offset="0.2291" style="stop-color:#88C53F"/>
				<stop  offset="0.445" style="stop-color:#7DC33D"/>
				<stop  offset="0.6556" style="stop-color:#6AC03B"/>
				<stop  offset="0.8618" style="stop-color:#4FBC38"/>
				<stop  offset="1" style="stop-color:#39B836"/>
			</linearGradient>
			<path class="st21" d="M118.2-354.4c0,2.6-0.3,4.9-0.8,7c-0.6,2.6-1.6,4.7-3,6.6c-2.5,3.3-6,5-10.3,5c-3.9,0-6.7-1-8.4-3
				c-1.7-1.9-2.5-5-2.6-9.2c0-0.2,0-0.4,0-0.6v-12.4c-3,0.2-6,0.3-9,0.4v12.2v2c0,6.1,1.5,10.6,4.5,13.6c3,3,7.6,4.5,13.6,4.5
				c5.8,0,10.6-2.3,14.4-6.8c0.7-0.9,1.4-1.8,2-2.7v8.1h4.3h4.2v-17.8V-364c-2.9,0.4-5.9,0.7-9,1.1V-354.4z"/>
			<linearGradient id="SVGID_18_" gradientUnits="userSpaceOnUse" x1="88.5975" y1="-328.0073" x2="88.5975" y2="-382.9278">
				<stop  offset="0" style="stop-color:#8CC63F"/>
				<stop  offset="0.2291" style="stop-color:#88C53F"/>
				<stop  offset="0.445" style="stop-color:#7DC33D"/>
				<stop  offset="0.6556" style="stop-color:#6AC03B"/>
				<stop  offset="0.8618" style="stop-color:#4FBC38"/>
				<stop  offset="1" style="stop-color:#39B836"/>
			</linearGradient>
			<path class="st22" d="M93.1-361.5v-2.6v-18.8h-4.5h-4.5v19v2.9v0.6c3-0.1,6-0.3,9-0.4V-361.5z"/>
			<linearGradient id="SVGID_19_" gradientUnits="userSpaceOnUse" x1="122.7304" y1="-328.0046" x2="122.7304" y2="-382.9278">
				<stop  offset="0" style="stop-color:#8CC63F"/>
				<stop  offset="0.2291" style="stop-color:#88C53F"/>
				<stop  offset="0.445" style="stop-color:#7DC33D"/>
				<stop  offset="0.6556" style="stop-color:#6AC03B"/>
				<stop  offset="0.8618" style="stop-color:#4FBC38"/>
				<stop  offset="1" style="stop-color:#39B836"/>
			</linearGradient>
			<path class="st23" d="M122.7-382.9h-4.5v17.5v1.3v1.2c3.1-0.3,6.1-0.7,9-1.1v-1.4v-0.7v-16.8H122.7z"/>
			<linearGradient id="SVGID_20_" gradientUnits="userSpaceOnUse" x1="156.3956" y1="-328.0049" x2="156.3956" y2="-384.5277">
				<stop  offset="0" style="stop-color:#8CC63F"/>
				<stop  offset="0.2291" style="stop-color:#88C53F"/>
				<stop  offset="0.445" style="stop-color:#7DC33D"/>
				<stop  offset="0.6556" style="stop-color:#6AC03B"/>
				<stop  offset="0.8618" style="stop-color:#4FBC38"/>
				<stop  offset="1" style="stop-color:#39B836"/>
			</linearGradient>
			<path class="st24" d="M180.8-356.2c0-6.3-1.2-11.8-3.6-16.3c-0.4-0.7-0.8-1.4-1.3-2.1c-2.6,0.9-5.3,1.8-8.3,2.6c0,0,0,0,0.1,0.1
				c0.2,0.3,0.4,0.6,0.6,0.9c1.8,2.7,2.8,6.3,3.1,10.7h-29.8c0.2-2.3,0.7-4.3,1.4-6.1c-3.2,0.6-6.5,1.1-9.9,1.6
				c-0.7,3-1.1,6.2-1.1,9.7c0,2.8,0.2,5.5,0.7,7.9c1,4.8,2.9,8.8,5.8,12c4.3,4.8,10.3,7.2,17.8,7.2c6.3,0,11.4-1.5,15.4-4.6
				c4-3.1,6.7-7.6,8-13.4h-8.9c-0.6,3-2.1,5.5-4.7,7.4c-2.6,1.9-5.6,2.9-9,2.9c-5.5,0-9.5-1.7-12-5.1c-1.2-1.7-2.1-3.8-2.8-6.3
				c-0.4-1.8-0.7-3.7-0.9-5.9h39.1L180.8-356.2z"/>
			<linearGradient id="SVGID_21_" gradientUnits="userSpaceOnUse" x1="154.4964" y1="-328.0065" x2="154.4964" y2="-384.5274">
				<stop  offset="0" style="stop-color:#8CC63F"/>
				<stop  offset="0.2291" style="stop-color:#88C53F"/>
				<stop  offset="0.445" style="stop-color:#7DC33D"/>
				<stop  offset="0.6556" style="stop-color:#6AC03B"/>
				<stop  offset="0.8618" style="stop-color:#4FBC38"/>
				<stop  offset="1" style="stop-color:#39B836"/>
			</linearGradient>
			<path class="st25" d="M143.5-367.7c0.1-0.3,0.3-0.5,0.4-0.8c0.5-1,1.1-1.9,1.8-2.7c2.8-3.5,6.6-5.3,11.3-5.3c3.3,0,6,0.7,8.2,2.2
				c0.9,0.6,1.7,1.4,2.5,2.3c2.9-0.8,5.7-1.7,8.3-2.6c-0.5-0.7-1-1.5-1.6-2.1c-0.2-0.3-0.5-0.5-0.7-0.8c-4.2-4.7-9.6-7-16.3-7
				c-7.7,0-13.9,2.7-18.5,8c-2.4,2.8-4.2,6.1-5.3,9.9c0,0.1,0,0.2-0.1,0.2c-0.2,0.5-0.3,1.1-0.4,1.6c3.4-0.5,6.7-1,9.9-1.6
				C143.1-366.8,143.3-367.3,143.5-367.7z"/>
		</g>
		<g class="st26">
			<path class="st2" d="M-9.4-366.1c0-0.7,0-1.3-0.1-2v-0.4h0c-0.4-4.9-2-8.7-4.8-11.5c-3.2-3.2-7.9-4.9-13.8-4.9
				c-5.9,0-10.9,2.3-14.8,6.9l-2,2.7v-8h-4.4h-4.3v9.1c3.7,1.3,7.8,2.5,12.2,3.6c0.2-0.4,0.5-0.7,0.7-1.1c2.6-3.3,6-5,10.4-5
				c4.1,0,7.1,1.1,8.9,3.2c1.5,1.7,2.3,4.2,2.6,7.6c3,0.5,6.1,1,9.2,1.4V-366.1z"/>
			<path class="st2" d="M25.7-364.9v-18.3h-4.6h-4.6v17.7v3.8v0.1c3,0.2,6,0.5,9.1,0.6v-0.1V-364.9z"/>
			<path class="st2" d="M78.5-363.8c-0.9-5.1-2.9-9.4-5.8-12.9c-4.3-5.2-9.9-7.8-16.9-7.8c-7.7,0-13.9,2.7-18.5,8
				c-2.8,3.3-4.8,7.3-5.9,11.9c-0.3,1.2-0.5,2.5-0.7,3.8c0,0,0,0.1,0,0.1c3,0.2,6.1,0.3,9.2,0.4c0-0.1,0-0.1,0-0.2
				c0.1-1.3,0.4-2.6,0.7-3.8c0.7-2.7,1.8-5.1,3.3-7c2.8-3.5,6.6-5.3,11.3-5.3c4.7,0,8.3,1.5,10.7,4.6c1.7,2.1,2.8,4.8,3.3,8.2
				c0.2,1,0.3,2.1,0.4,3.3c0,0,0,0.1,0,0.1h-6.3H48.3h-8c6.6,0.2,13.3,0.3,20.1,0.3c6.3,0,12.5-0.1,18.6-0.3c0-0.2,0-0.3,0-0.5
				C78.9-361.8,78.7-362.8,78.5-363.8z"/>
			<path class="st2" d="M93.1-361.5v-2.6v-18.8h-4.5h-4.5v19v2.9v0.6c3-0.1,6-0.3,9-0.4V-361.5z"/>
			<path class="st2" d="M127.2-366.1v-16.8h-4.5h-4.5v17.5v1.3v1.2c3.1-0.3,6.1-0.7,9-1.1v-1.4V-366.1z"/>
			<path class="st2" d="M173.6-377.5c-4.2-4.7-9.6-7-16.3-7c-7.7,0-13.9,2.7-18.5,8c-2.4,2.8-4.2,6.1-5.3,9.9c0,0.1,0,0.2-0.1,0.2
				c-0.2,0.5-0.3,1.1-0.4,1.6c3.4-0.5,6.7-1,9.9-1.6c0.2-0.4,0.3-0.9,0.5-1.3c0.1-0.3,0.3-0.5,0.4-0.8c0.5-1,1.1-1.9,1.8-2.7
				c2.8-3.5,6.6-5.3,11.3-5.3c3.3,0,6,0.7,8.2,2.2c0.9,0.6,1.7,1.4,2.5,2.3c2.9-0.8,5.7-1.7,8.3-2.6c-0.5-0.7-1-1.5-1.6-2.1
				C174.1-377,173.9-377.2,173.6-377.5z"/>
		</g>
	</g>
	<g>
		
			<image style="overflow:visible;opacity:0.48;" width="247" height="70" xlink:href="6E76196F3A4CE555.png"  transform="matrix(1 0 0 1 -58.6 -500.333)">
		</image>
		<g>
			<g>
				<g>
					<linearGradient id="SVGID_22_" gradientUnits="userSpaceOnUse" x1="40.0313" y1="-470.4756" x2="40.3346" y2="-470.4756">
						<stop  offset="0" style="stop-color:#8CC63F"/>
						<stop  offset="0.2291" style="stop-color:#88C53F"/>
						<stop  offset="0.445" style="stop-color:#7DC33D"/>
						<stop  offset="0.6556" style="stop-color:#6AC03B"/>
						<stop  offset="0.8618" style="stop-color:#4FBC38"/>
						<stop  offset="1" style="stop-color:#39B836"/>
					</linearGradient>
					<path class="st27" d="M40.3-470.5c-0.1,0-0.2,0-0.3,0c0,0,0,0,0,0H40.3z"/>
					<linearGradient id="SVGID_23_" gradientUnits="userSpaceOnUse" x1="-18.5619" y1="-455.8954" x2="-18.5619" y2="-455.8954">
						<stop  offset="0" style="stop-color:#8CC63F"/>
						<stop  offset="0.2291" style="stop-color:#88C53F"/>
						<stop  offset="0.445" style="stop-color:#7DC33D"/>
						<stop  offset="0.6556" style="stop-color:#6AC03B"/>
						<stop  offset="0.8618" style="stop-color:#4FBC38"/>
						<stop  offset="1" style="stop-color:#39B836"/>
					</linearGradient>
					<line class="st28" x1="-18.6" y1="-456.3" x2="-18.6" y2="-455.5"/>
					<linearGradient id="SVGID_24_" gradientUnits="userSpaceOnUse" x1="-47.4892" y1="-437.621" x2="-47.4892" y2="-495.0437">
						<stop  offset="0" style="stop-color:#8CC63F"/>
						<stop  offset="0.2291" style="stop-color:#88C53F"/>
						<stop  offset="0.445" style="stop-color:#7DC33D"/>
						<stop  offset="0.6556" style="stop-color:#6AC03B"/>
						<stop  offset="0.8618" style="stop-color:#4FBC38"/>
						<stop  offset="1" style="stop-color:#39B836"/>
					</linearGradient>
					<path class="st29" d="M-53.6-470.3v0.6v13.5v9.6v7.5h4.6h4.6v-10.2v-5.3v-12.2v-1.3c0-0.1,0-0.2,0-0.3c0-5,1.1-9,3.1-12.2
						c-4.4-1.1-8.5-2.3-12.2-3.6V-470.3z"/>
					<linearGradient id="SVGID_25_" gradientUnits="userSpaceOnUse" x1="3.5196" y1="-437.6211" x2="3.5196" y2="-495.0446">
						<stop  offset="0" style="stop-color:#8CC63F"/>
						<stop  offset="0.2291" style="stop-color:#88C53F"/>
						<stop  offset="0.445" style="stop-color:#7DC33D"/>
						<stop  offset="0.6556" style="stop-color:#6AC03B"/>
						<stop  offset="0.8618" style="stop-color:#4FBC38"/>
						<stop  offset="1" style="stop-color:#39B836"/>
					</linearGradient>
					<path class="st30" d="M16.5-464.4c0,0.7,0,1.5-0.1,2.1c-0.3,4.7-1.6,8.5-3.8,11.4c-2.6,3.3-6,5-10.4,5c-4.1,0-7.1-1.1-8.9-3.2
						c-1.6-1.8-2.5-5.9-2.7-9.6c0-0.7-0.1-1.3-0.1-2v-5.4v-0.7c0,0,0-2.3,0-2.3l0.1-5.4c-3.2-0.4-6.2-0.9-9.2-1.4
						c0,0.2,0,0.5,0.1,0.7v8.1v7.2v1v2.6c0,0.7,0,1.3,0.1,2v0.4h0c0.4,4.9,2,8.7,4.8,11.5c3.2,3.2,7.9,4.9,13.8,4.9
						c5.9,0,10.9-2.3,14.8-6.9l2-2.7v8h4.4h4.3v-22.3v-9.6c-3.1-0.2-6.1-0.4-9.1-0.6V-464.4z"/>
					<linearGradient id="SVGID_26_" gradientUnits="userSpaceOnUse" x1="54.8331" y1="-438.1865" x2="54.8331" y2="-494.7097">
						<stop  offset="0" style="stop-color:#8CC63F"/>
						<stop  offset="0.2291" style="stop-color:#88C53F"/>
						<stop  offset="0.445" style="stop-color:#7DC33D"/>
						<stop  offset="0.6556" style="stop-color:#6AC03B"/>
						<stop  offset="0.8618" style="stop-color:#4FBC38"/>
						<stop  offset="1" style="stop-color:#39B836"/>
					</linearGradient>
					<path class="st31" d="M40.3-470.5H40c0,0,0,0,0,0c-3.1-0.1-6.2-0.2-9.2-0.4c-0.2,1.8-0.3,3.6-0.3,5.6c0,1.4,0.1,2.8,0.2,4.1
						c0.6,6.5,2.7,11.8,6.3,15.8c4.3,4.8,10.3,7.2,17.8,7.2c6.3,0,11.4-1.5,15.4-4.6c4-3.1,6.7-7.6,8-13.4h-8.9
						c-0.6,3-2.1,5.5-4.7,7.4c-2.6,1.9-5.6,2.9-9,2.9c-5.5,0-9.5-1.7-12-5.1c-1.7-2.3-2.8-5.5-3.4-9.5c-0.1-0.9-0.2-1.8-0.3-2.7
						h39.1l0.1-3.2c0-1.4-0.1-2.7-0.2-4c-6.1,0.2-12.3,0.3-18.6,0.3C53.6-470.1,46.9-470.2,40.3-470.5z"/>
					<linearGradient id="SVGID_27_" gradientUnits="userSpaceOnUse" x1="-31.4875" y1="-437.6205" x2="-31.4875" y2="-495.0449">
						<stop  offset="0" style="stop-color:#8CC63F"/>
						<stop  offset="0.2291" style="stop-color:#88C53F"/>
						<stop  offset="0.445" style="stop-color:#7DC33D"/>
						<stop  offset="0.6556" style="stop-color:#6AC03B"/>
						<stop  offset="0.8618" style="stop-color:#4FBC38"/>
						<stop  offset="1" style="stop-color:#39B836"/>
					</linearGradient>
					<path class="st32" d="M-9.4-476.4c0-0.7,0-1.3-0.1-2v-0.4h0c-0.4-4.9-2-8.7-4.8-11.5c-3.2-3.2-7.9-4.9-13.8-4.9
						c-5.9,0-10.9,2.3-14.8,6.9l-2,2.7v-8h-4.4h-4.3v9.1c3.7,1.3,7.8,2.5,12.2,3.6c0.2-0.4,0.5-0.7,0.7-1.1c2.6-3.3,6-5,10.4-5
						c4.1,0,7.1,1.1,8.9,3.2c1.5,1.7,2.3,4.2,2.6,7.6c3,0.5,6.1,1,9.2,1.4V-476.4z"/>
					<linearGradient id="SVGID_28_" gradientUnits="userSpaceOnUse" x1="21.1024" y1="-437.6197" x2="21.1024" y2="-495.0451">
						<stop  offset="0" style="stop-color:#8CC63F"/>
						<stop  offset="0.2291" style="stop-color:#88C53F"/>
						<stop  offset="0.445" style="stop-color:#7DC33D"/>
						<stop  offset="0.6556" style="stop-color:#6AC03B"/>
						<stop  offset="0.8618" style="stop-color:#4FBC38"/>
						<stop  offset="1" style="stop-color:#39B836"/>
					</linearGradient>
					<path class="st33" d="M25.7-475.1v-18.3h-4.6h-4.6v17.7v3.8v0.1c3,0.2,6,0.4,9.1,0.6v-0.1V-475.1z"/>
					<linearGradient id="SVGID_29_" gradientUnits="userSpaceOnUse" x1="54.9073" y1="-438.1873" x2="54.9073" y2="-494.709">
						<stop  offset="0" style="stop-color:#8CC63F"/>
						<stop  offset="0.2291" style="stop-color:#88C53F"/>
						<stop  offset="0.445" style="stop-color:#7DC33D"/>
						<stop  offset="0.6556" style="stop-color:#6AC03B"/>
						<stop  offset="0.8618" style="stop-color:#4FBC38"/>
						<stop  offset="1" style="stop-color:#39B836"/>
					</linearGradient>
					<path class="st34" d="M78.5-474c-0.9-5.1-2.9-9.4-5.8-12.9c-4.3-5.2-9.9-7.8-16.9-7.8c-7.7,0-13.9,2.7-18.5,8
						c-2.8,3.3-4.8,7.3-5.9,11.9c-0.3,1.2-0.5,2.5-0.7,3.8c0,0,0,0.1,0,0.1c3,0.2,6.1,0.3,9.2,0.4c0-0.1,0-0.1,0-0.2
						c0.1-1.3,0.4-2.6,0.7-3.8c0.7-2.7,1.8-5.1,3.3-7c2.8-3.5,6.6-5.3,11.3-5.3c4.7,0,8.3,1.5,10.7,4.6c1.7,2.1,2.8,4.8,3.3,8.2
						c0.2,1,0.3,2.1,0.4,3.3c0,0,0,0.1,0,0.1h-6.3H48.3h-8c6.6,0.2,13.3,0.3,20.1,0.3c6.3,0,12.5-0.1,18.6-0.3c0-0.2,0-0.3,0-0.5
						C78.9-472,78.7-473,78.5-474z"/>
					<linearGradient id="SVGID_30_" gradientUnits="userSpaceOnUse" x1="105.6639" y1="-438.1865" x2="105.6639" y2="-493.1105">
						<stop  offset="0" style="stop-color:#8CC63F"/>
						<stop  offset="0.2291" style="stop-color:#88C53F"/>
						<stop  offset="0.445" style="stop-color:#7DC33D"/>
						<stop  offset="0.6556" style="stop-color:#6AC03B"/>
						<stop  offset="0.8618" style="stop-color:#4FBC38"/>
						<stop  offset="1" style="stop-color:#39B836"/>
					</linearGradient>
					<path class="st35" d="M118.2-464.6c0,2.6-0.3,4.9-0.8,7c-0.6,2.6-1.6,4.7-3,6.6c-2.5,3.3-6,5-10.3,5c-3.9,0-6.7-1-8.4-3
						c-1.7-1.9-2.5-5-2.6-9.2c0-0.2,0-0.4,0-0.6V-471c-3,0.2-6,0.3-9,0.4v12.2v2c0,6.1,1.5,10.6,4.5,13.6c3,3,7.6,4.5,13.6,4.5
						c5.8,0,10.6-2.3,14.4-6.8c0.7-0.9,1.4-1.8,2-2.7v8.1h4.3h4.2v-17.8v-16.8c-2.9,0.4-5.9,0.7-9,1.1V-464.6z"/>
					<linearGradient id="SVGID_31_" gradientUnits="userSpaceOnUse" x1="88.5975" y1="-438.1891" x2="88.5975" y2="-493.1093">
						<stop  offset="0" style="stop-color:#8CC63F"/>
						<stop  offset="0.2291" style="stop-color:#88C53F"/>
						<stop  offset="0.445" style="stop-color:#7DC33D"/>
						<stop  offset="0.6556" style="stop-color:#6AC03B"/>
						<stop  offset="0.8618" style="stop-color:#4FBC38"/>
						<stop  offset="1" style="stop-color:#39B836"/>
					</linearGradient>
					<path class="st36" d="M93.1-471.7v-2.6v-18.8h-4.5h-4.5v19v2.9v0.6c3-0.1,6-0.3,9-0.4V-471.7z"/>
					<linearGradient id="SVGID_32_" gradientUnits="userSpaceOnUse" x1="122.7303" y1="-438.1864" x2="122.7303" y2="-493.1093">
						<stop  offset="0" style="stop-color:#8CC63F"/>
						<stop  offset="0.2291" style="stop-color:#88C53F"/>
						<stop  offset="0.445" style="stop-color:#7DC33D"/>
						<stop  offset="0.6556" style="stop-color:#6AC03B"/>
						<stop  offset="0.8618" style="stop-color:#4FBC38"/>
						<stop  offset="1" style="stop-color:#39B836"/>
					</linearGradient>
					<path class="st37" d="M122.7-493.1h-4.5v17.5v1.3v1.2c3.1-0.3,6.1-0.7,9-1.1v-1.4v-0.7v-16.8H122.7z"/>
					<linearGradient id="SVGID_33_" gradientUnits="userSpaceOnUse" x1="156.3956" y1="-438.1865" x2="156.3956" y2="-494.7094">
						<stop  offset="0" style="stop-color:#8CC63F"/>
						<stop  offset="0.2291" style="stop-color:#88C53F"/>
						<stop  offset="0.445" style="stop-color:#7DC33D"/>
						<stop  offset="0.6556" style="stop-color:#6AC03B"/>
						<stop  offset="0.8618" style="stop-color:#4FBC38"/>
						<stop  offset="1" style="stop-color:#39B836"/>
					</linearGradient>
					<path class="st38" d="M180.8-466.4c0-6.3-1.2-11.8-3.6-16.3c-0.4-0.7-0.8-1.4-1.3-2.1c-2.6,0.9-5.3,1.8-8.3,2.6
						c0,0,0,0,0.1,0.1c0.2,0.3,0.4,0.6,0.6,0.9c1.8,2.7,2.8,6.3,3.1,10.7h-29.8c0.2-2.3,0.7-4.3,1.4-6.1c-3.2,0.6-6.5,1.1-9.9,1.6
						c-0.7,3-1.1,6.2-1.1,9.7c0,2.8,0.2,5.5,0.7,7.9c1,4.8,2.9,8.8,5.8,12c4.3,4.8,10.3,7.2,17.8,7.2c6.3,0,11.4-1.5,15.4-4.6
						c4-3.1,6.7-7.6,8-13.4h-8.9c-0.6,3-2.1,5.5-4.7,7.4c-2.6,1.9-5.6,2.9-9,2.9c-5.5,0-9.5-1.7-12-5.1c-1.2-1.7-2.1-3.8-2.8-6.3
						c-0.4-1.8-0.7-3.7-0.9-5.9h39.1L180.8-466.4z"/>
					<linearGradient id="SVGID_34_" gradientUnits="userSpaceOnUse" x1="154.4964" y1="-438.1881" x2="154.4964" y2="-494.709">
						<stop  offset="0" style="stop-color:#8CC63F"/>
						<stop  offset="0.2291" style="stop-color:#88C53F"/>
						<stop  offset="0.445" style="stop-color:#7DC33D"/>
						<stop  offset="0.6556" style="stop-color:#6AC03B"/>
						<stop  offset="0.8618" style="stop-color:#4FBC38"/>
						<stop  offset="1" style="stop-color:#39B836"/>
					</linearGradient>
					<path class="st39" d="M143.5-477.9c0.1-0.3,0.3-0.5,0.4-0.8c0.5-1,1.1-1.9,1.8-2.7c2.8-3.5,6.6-5.3,11.3-5.3
						c3.3,0,6,0.7,8.2,2.2c0.9,0.6,1.7,1.4,2.5,2.3c2.9-0.8,5.7-1.7,8.3-2.6c-0.5-0.7-1-1.5-1.6-2.1c-0.2-0.3-0.5-0.5-0.7-0.8
						c-4.2-4.7-9.6-7-16.3-7c-7.7,0-13.9,2.7-18.5,8c-2.4,2.8-4.2,6.1-5.3,9.9c0,0.1,0,0.2-0.1,0.2c-0.2,0.5-0.3,1.1-0.4,1.6
						c3.4-0.5,6.7-1,9.9-1.6C143.1-477,143.3-477.5,143.5-477.9z"/>
				</g>
				<g class="st26">
					<path class="st2" d="M-9.4-476.3c0-0.7,0-1.3-0.1-2v-0.4h0c-0.4-4.9-2-8.7-4.8-11.5c-3.2-3.2-7.9-4.9-13.8-4.9
						c-5.9,0-10.9,2.3-14.8,6.9l-2,2.7v-8h-4.4h-4.3v9.1c3.7,1.3,7.8,2.5,12.2,3.6c0.2-0.4,0.5-0.7,0.7-1.1c2.6-3.3,6-5,10.4-5
						c4.1,0,7.1,1.1,8.9,3.2c1.5,1.7,2.3,4.2,2.6,7.6c3,0.5,6.1,1,9.2,1.4V-476.3z"/>
					<path class="st2" d="M25.7-475.1v-18.3h-4.6h-4.6v17.7v3.8v0.1c3,0.2,6,0.5,9.1,0.6v-0.1V-475.1z"/>
					<path class="st2" d="M78.5-474c-0.9-5.1-2.9-9.4-5.8-12.9c-4.3-5.2-9.9-7.8-16.9-7.8c-7.7,0-13.9,2.7-18.5,8
						c-2.8,3.3-4.8,7.3-5.9,11.9c-0.3,1.2-0.5,2.5-0.7,3.8c0,0,0,0.1,0,0.1c3,0.2,6.1,0.3,9.2,0.4c0-0.1,0-0.1,0-0.2
						c0.1-1.3,0.4-2.6,0.7-3.8c0.7-2.7,1.8-5.1,3.3-7c2.8-3.5,6.6-5.3,11.3-5.3c4.7,0,8.3,1.5,10.7,4.6c1.7,2.1,2.8,4.8,3.3,8.2
						c0.2,1,0.3,2.1,0.4,3.3c0,0,0,0.1,0,0.1h-6.3H48.3h-8c6.6,0.2,13.3,0.3,20.1,0.3c6.3,0,12.5-0.1,18.6-0.3c0-0.2,0-0.3,0-0.5
						C78.9-471.9,78.7-473,78.5-474z"/>
					<path class="st2" d="M93.1-471.7v-2.6v-18.8h-4.5h-4.5v19v2.9v0.6c3-0.1,6-0.3,9-0.4V-471.7z"/>
					<path class="st2" d="M127.2-476.3v-16.8h-4.5h-4.5v17.5v1.3v1.2c3.1-0.3,6.1-0.7,9-1.1v-1.4V-476.3z"/>
					<path class="st2" d="M173.6-487.7c-4.2-4.7-9.6-7-16.3-7c-7.7,0-13.9,2.7-18.5,8c-2.4,2.8-4.2,6.1-5.3,9.9c0,0.1,0,0.2-0.1,0.2
						c-0.2,0.5-0.3,1.1-0.4,1.6c3.4-0.5,6.7-1,9.9-1.6c0.2-0.4,0.3-0.9,0.5-1.3c0.1-0.3,0.3-0.5,0.4-0.8c0.5-1,1.1-1.9,1.8-2.7
						c2.8-3.5,6.6-5.3,11.3-5.3c3.3,0,6,0.7,8.2,2.2c0.9,0.6,1.7,1.4,2.5,2.3c2.9-0.8,5.7-1.7,8.3-2.6c-0.5-0.7-1-1.5-1.6-2.1
						C174.1-487.2,173.9-487.4,173.6-487.7z"/>
				</g>
			</g>
		</g>
	</g>
	<linearGradient id="SVGID_35_" gradientUnits="userSpaceOnUse" x1="173.7899" y1="335.6439" x2="173.7899" y2="279.5539">
		<stop  offset="0" style="stop-color:#8CC63F"/>
		<stop  offset="0.4484" style="stop-color:#88C63F"/>
		<stop  offset="0.8863" style="stop-color:#7CC43E"/>
		<stop  offset="1" style="stop-color:#78C43E"/>
	</linearGradient>
	<path class="st40" d="M213.8,280.8v53.7h-8.3V326h-0.2c-1.9,3.3-4.3,5.8-7.2,7.3c-2.9,1.6-6.3,2.3-10.3,2.3c-3.5,0-6.5-0.5-8.8-1.4
		c-2.3-0.9-4.3-2.3-5.7-4c-1.5-1.7-2.5-3.8-3.1-6.2c-0.6-2.4-0.9-5-0.9-7.9v-1.6h0v-16.4c0-3.3-1-6-2.9-7.9s-4.6-2.9-8-2.9
		c-2.7,0-5,0.4-7,1.2c-2,0.8-3.6,2-4.9,3.5c-1.3,1.5-2.3,3.3-3,5.4c-0.7,2-1,4.3-1,6.7v30.3h-8.8v-53.7h8.3v8.5h0.2
		c3.7-6.5,9.5-9.8,17.5-9.8c3.5,0,6.5,0.5,8.8,1.4c2.4,1,4.3,2.3,5.7,4.1c1.5,1.7,2.5,3.8,3.1,6.2c0.6,2.4,0.9,5,0.9,7.9v1.6h0v16.3
		c0,3.3,1,6,2.9,7.9c1.9,1.9,4.6,2.9,8,2.9c2.7,0,5-0.4,7-1.2c2-0.8,3.6-2,4.9-3.5c1.3-1.5,2.3-3.3,3-5.3c0.7-2,1-4.3,1-6.7v-30.3
		H213.8z"/>
	<g>
		<linearGradient id="SVGID_36_" gradientUnits="userSpaceOnUse" x1="243.5567" y1="336.7861" x2="243.5567" y2="280.6953">
			<stop  offset="0" style="stop-color:#8CC63F"/>
			<stop  offset="0.4484" style="stop-color:#88C63F"/>
			<stop  offset="0.8863" style="stop-color:#7CC43E"/>
			<stop  offset="1" style="stop-color:#78C43E"/>
		</linearGradient>
		<path class="st41" d="M259.7,332.2c-4,3-9.1,4.6-15.2,4.6c-4.3,0-8-0.7-11.2-2.1c-3.2-1.4-5.8-3.3-7.9-5.8
			c-2.1-2.5-3.8-5.5-4.8-8.9c-1.1-3.5-1.7-7.2-1.8-11.3c0-4.1,0.6-7.8,1.9-11.2c1.2-3.4,3-6.3,5.2-8.8c2.2-2.5,4.9-4.4,8-5.8
			c3.1-1.4,6.5-2.1,10.1-2.1c4.8,0,8.7,1,11.9,3c3.2,2,5.7,4.5,7.6,7.5c1.9,3,3.2,6.4,3.9,10c0.7,3.6,1,7,0.9,10.3h-40.2
			c-0.1,2.4,0.2,4.6,0.8,6.7c0.6,2.1,1.6,4,3,5.6c1.4,1.6,3.2,2.9,5.3,3.9c2.1,1,4.7,1.5,7.6,1.5c3.7,0,6.8-0.9,9.2-2.6
			c2.4-1.7,4-4.4,4.7-7.9h8.7C266.3,324.6,263.7,329.2,259.7,332.2z M257.6,297.7c-0.8-1.9-1.9-3.5-3.2-4.8
			c-1.4-1.4-2.9-2.4-4.8-3.2c-1.8-0.8-3.9-1.2-6.1-1.2c-2.3,0-4.3,0.4-6.2,1.2c-1.8,0.8-3.4,1.9-4.7,3.3c-1.3,1.4-2.4,3-3.1,4.8
			c-0.8,1.8-1.2,3.8-1.4,5.9H259C258.8,301.6,258.4,299.6,257.6,297.7z"/>
		<linearGradient id="SVGID_37_" gradientUnits="userSpaceOnUse" x1="295.5268" y1="336.7861" x2="295.5268" y2="281.9414">
			<stop  offset="0" style="stop-color:#8CC63F"/>
			<stop  offset="0.4484" style="stop-color:#88C63F"/>
			<stop  offset="0.8863" style="stop-color:#7CC43E"/>
			<stop  offset="1" style="stop-color:#78C43E"/>
		</linearGradient>
		<path class="st42" d="M309.4,335.6v-8.5h-0.2c-1.9,3.3-4.3,5.8-7.2,7.3c-2.9,1.6-6.3,2.3-10.3,2.3c-3.5,0-6.5-0.5-8.8-1.4
			c-2.4-0.9-4.3-2.3-5.7-4c-1.5-1.7-2.5-3.8-3.1-6.2c-0.6-2.4-0.9-5-0.9-7.9v-35.3h8.8v36.4c0,3.3,1,6,2.9,7.9
			c1.9,1.9,4.6,2.9,8,2.9c2.7,0,5-0.4,7-1.2s3.6-2,4.9-3.5c1.3-1.5,2.3-3.3,3-5.3c0.7-2,1-4.3,1-6.7v-30.3h8.8v53.7H309.4z"/>
		<linearGradient id="SVGID_38_" gradientUnits="userSpaceOnUse" x1="346.7002" y1="336.7861" x2="346.7002" y2="280.6953">
			<stop  offset="0" style="stop-color:#8CC63F"/>
			<stop  offset="0.4484" style="stop-color:#88C63F"/>
			<stop  offset="0.8863" style="stop-color:#7CC43E"/>
			<stop  offset="1" style="stop-color:#78C43E"/>
		</linearGradient>
		<path class="st43" d="M362.8,332.2c-4,3-9.1,4.6-15.2,4.6c-4.3,0-8-0.7-11.2-2.1c-3.2-1.4-5.8-3.3-7.9-5.8
			c-2.1-2.5-3.8-5.5-4.8-8.9c-1.1-3.5-1.7-7.2-1.8-11.3c0-4.1,0.6-7.8,1.9-11.2c1.2-3.4,3-6.3,5.2-8.8c2.2-2.5,4.9-4.4,8-5.8
			c3.1-1.4,6.5-2.1,10.1-2.1c4.8,0,8.7,1,11.9,3c3.2,2,5.7,4.5,7.6,7.5c1.9,3,3.2,6.4,3.9,10c0.7,3.6,1,7,0.9,10.3h-40.2
			c-0.1,2.4,0.2,4.6,0.8,6.7c0.6,2.1,1.6,4,3,5.6c1.4,1.6,3.2,2.9,5.3,3.9c2.1,1,4.7,1.5,7.6,1.5c3.7,0,6.8-0.9,9.2-2.6
			c2.4-1.7,4-4.4,4.7-7.9h8.7C369.4,324.6,366.9,329.2,362.8,332.2z M360.7,297.7c-0.8-1.9-1.9-3.5-3.2-4.8
			c-1.4-1.4-2.9-2.4-4.8-3.2c-1.8-0.8-3.9-1.2-6.1-1.2c-2.3,0-4.3,0.4-6.2,1.2c-1.8,0.8-3.4,1.9-4.7,3.3c-1.3,1.4-2.4,3-3.1,4.8
			c-0.8,1.8-1.2,3.8-1.4,5.9h30.9C362,301.6,361.5,299.6,360.7,297.7z"/>
	</g>
	<g>
		<path class="st44" d="M34.7,1v22.6h-3.5V20h-0.1c-0.8,1.4-1.8,2.4-3,3.1c-1.2,0.7-2.7,1-4.3,1c-1.5,0-2.7-0.2-3.7-0.6
			c-1-0.4-1.8-1-2.4-1.7c-0.6-0.7-1-1.6-1.3-2.6c-0.2-1-0.4-2.1-0.4-3.3v-0.7h0V8.3c0-1.4-0.4-2.5-1.2-3.3c-0.8-0.8-1.9-1.2-3.4-1.2
			c-1.1,0-2.1,0.2-2.9,0.5C7.6,4.6,6.9,5.1,6.4,5.8C5.8,6.4,5.4,7.1,5.1,8c-0.3,0.9-0.4,1.8-0.4,2.8v12.8H1V1h3.5v3.6h0.1
			c1.5-2.7,4-4.1,7.3-4.1c1.5,0,2.7,0.2,3.7,0.6c1,0.4,1.8,1,2.4,1.7c0.6,0.7,1,1.6,1.3,2.6c0.2,1,0.4,2.1,0.4,3.3v0.7h0v6.9
			c0,1.4,0.4,2.5,1.2,3.3c0.8,0.8,1.9,1.2,3.4,1.2c1.1,0,2.1-0.2,2.9-0.5c0.8-0.3,1.5-0.8,2.1-1.5c0.6-0.6,1-1.4,1.2-2.3
			c0.3-0.9,0.4-1.8,0.4-2.8V1H34.7z"/>
		<g>
			<path class="st44" d="M54,22.6c-1.7,1.3-3.8,1.9-6.4,1.9c-1.8,0-3.4-0.3-4.7-0.9c-1.3-0.6-2.4-1.4-3.3-2.4c-0.9-1-1.6-2.3-2-3.8
				c-0.5-1.5-0.7-3-0.8-4.8c0-1.7,0.3-3.3,0.8-4.7c0.5-1.4,1.3-2.7,2.2-3.7c0.9-1,2.1-1.9,3.4-2.4c1.3-0.6,2.7-0.9,4.3-0.9
				c2,0,3.7,0.4,5,1.2c1.3,0.8,2.4,1.9,3.2,3.2c0.8,1.3,1.4,2.7,1.7,4.2c0.3,1.5,0.4,3,0.4,4.3H40.7c0,1,0.1,1.9,0.3,2.8
				c0.3,0.9,0.7,1.7,1.3,2.4c0.6,0.7,1.3,1.2,2.2,1.6c0.9,0.4,2,0.6,3.2,0.6c1.6,0,2.9-0.4,3.9-1.1c1-0.7,1.7-1.8,2-3.3h3.7
				C56.8,19.4,55.7,21.3,54,22.6z M53.1,8.1c-0.3-0.8-0.8-1.5-1.4-2c-0.6-0.6-1.2-1-2-1.4c-0.8-0.3-1.6-0.5-2.6-0.5
				c-1,0-1.8,0.2-2.6,0.5c-0.8,0.3-1.4,0.8-2,1.4c-0.6,0.6-1,1.3-1.3,2c-0.3,0.8-0.5,1.6-0.6,2.5h13C53.6,9.7,53.4,8.9,53.1,8.1z"/>
			<path class="st44" d="M74.9,24.1v-3.6h-0.1c-0.8,1.4-1.8,2.4-3,3.1c-1.2,0.7-2.7,1-4.3,1c-1.5,0-2.7-0.2-3.7-0.6
				c-1-0.4-1.8-1-2.4-1.7c-0.6-0.7-1-1.6-1.3-2.6c-0.2-1-0.4-2.1-0.4-3.3V1.5h3.7v15.3c0,1.4,0.4,2.5,1.2,3.3
				c0.8,0.8,1.9,1.2,3.4,1.2c1.1,0,2.1-0.2,2.9-0.5c0.8-0.3,1.5-0.8,2.1-1.5c0.6-0.6,1-1.4,1.2-2.2c0.3-0.9,0.4-1.8,0.4-2.8V1.5h3.7
				v22.6H74.9z"/>
			<path class="st44" d="M97.4,22.6c-1.7,1.3-3.8,1.9-6.4,1.9c-1.8,0-3.4-0.3-4.7-0.9c-1.3-0.6-2.4-1.4-3.3-2.4
				c-0.9-1-1.6-2.3-2-3.8c-0.5-1.5-0.7-3-0.8-4.8c0-1.7,0.3-3.3,0.8-4.7c0.5-1.4,1.3-2.7,2.2-3.7c0.9-1,2.1-1.9,3.4-2.4
				c1.3-0.6,2.7-0.9,4.3-0.9c2,0,3.7,0.4,5,1.2C97.1,3,98.2,4.1,99,5.4c0.8,1.3,1.4,2.7,1.7,4.2c0.3,1.5,0.4,3,0.4,4.3H84.1
				c0,1,0.1,1.9,0.3,2.8c0.3,0.9,0.7,1.7,1.3,2.4c0.6,0.7,1.3,1.2,2.2,1.6c0.9,0.4,2,0.6,3.2,0.6c1.6,0,2.9-0.4,3.9-1.1
				c1-0.7,1.7-1.8,2-3.3h3.7C100.1,19.4,99,21.3,97.4,22.6z M96.5,8.1c-0.3-0.8-0.8-1.5-1.4-2c-0.6-0.6-1.2-1-2-1.4
				c-0.8-0.3-1.6-0.5-2.6-0.5c-1,0-1.8,0.2-2.6,0.5c-0.8,0.3-1.4,0.8-2,1.4c-0.6,0.6-1,1.3-1.3,2c-0.3,0.8-0.5,1.6-0.6,2.5h13
				C97,9.7,96.8,8.9,96.5,8.1z"/>
		</g>
	</g>
	<g>
		<path class="st45" d="M-118.9,346.8v53.7h-8.3v-8.5h-0.2c-1.9,3.3-4.3,5.8-7.2,7.3c-2.9,1.6-6.3,2.3-10.3,2.3
			c-3.5,0-6.5-0.5-8.8-1.4c-2.3-0.9-4.3-2.3-5.7-4c-1.5-1.7-2.5-3.8-3.1-6.2c-0.6-2.4-0.9-5-0.9-7.9v-1.6h0v-16.4c0-3.3-1-6-2.9-7.9
			s-4.6-2.9-8-2.9c-2.7,0-5,0.4-7,1.2c-2,0.8-3.6,2-4.9,3.5c-1.3,1.5-2.3,3.3-3,5.4c-0.7,2-1,4.3-1,6.7v30.3h-8.8v-53.7h8.3v8.5h0.2
			c3.7-6.5,9.5-9.8,17.5-9.8c3.5,0,6.5,0.5,8.8,1.4c2.4,1,4.3,2.3,5.7,4.1c1.5,1.7,2.5,3.8,3.1,6.2c0.6,2.4,0.9,5,0.9,7.9v1.6h0
			v16.3c0,3.3,1,6,2.9,7.9c1.9,1.9,4.6,2.9,8,2.9c2.7,0,5-0.4,7-1.2c2-0.8,3.6-2,4.9-3.5c1.3-1.5,2.3-3.3,3-5.3c0.7-2,1-4.3,1-6.7
			v-30.3H-118.9z"/>
		<g>
			<path class="st45" d="M-73,398.2c-4,3-9.1,4.6-15.2,4.6c-4.3,0-8-0.7-11.2-2.1c-3.2-1.4-5.8-3.3-7.9-5.8
				c-2.1-2.5-3.8-5.5-4.8-8.9c-1.1-3.5-1.7-7.2-1.8-11.3c0-4.1,0.6-7.8,1.9-11.2c1.2-3.4,3-6.3,5.2-8.8c2.2-2.5,4.9-4.4,8-5.8
				c3.1-1.4,6.5-2.1,10.1-2.1c4.8,0,8.7,1,11.9,3c3.2,2,5.7,4.5,7.6,7.5c1.9,3,3.2,6.4,3.9,10c0.7,3.6,1,7,0.9,10.3h-40.2
				c-0.1,2.4,0.2,4.6,0.8,6.7c0.6,2.1,1.6,4,3,5.6c1.4,1.6,3.2,2.9,5.3,3.9c2.1,1,4.7,1.5,7.6,1.5c3.7,0,6.8-0.9,9.2-2.6
				c2.4-1.7,4-4.4,4.7-7.9h8.7C-66.4,390.6-69,395.1-73,398.2z M-75.1,363.7c-0.8-1.9-1.9-3.5-3.2-4.8c-1.4-1.4-2.9-2.4-4.8-3.2
				c-1.8-0.8-3.9-1.2-6.1-1.2c-2.3,0-4.3,0.4-6.2,1.2c-1.8,0.8-3.4,1.9-4.7,3.3c-1.3,1.4-2.4,3-3.1,4.8c-0.8,1.8-1.2,3.8-1.4,5.9
				h30.9C-73.9,367.5-74.3,365.6-75.1,363.7z"/>
			<path class="st45" d="M-23.3,401.6v-8.5h-0.2c-1.9,3.3-4.3,5.8-7.2,7.3c-2.9,1.6-6.3,2.3-10.3,2.3c-3.5,0-6.5-0.5-8.8-1.4
				c-2.4-0.9-4.3-2.3-5.7-4c-1.5-1.7-2.5-3.8-3.1-6.2c-0.6-2.4-0.9-5-0.9-7.9v-35.3h8.8v36.4c0,3.3,1,6,2.9,7.9
				c1.9,1.9,4.6,2.9,8,2.9c2.7,0,5-0.4,7-1.2s3.6-2,4.9-3.5c1.3-1.5,2.3-3.3,3-5.3c0.7-2,1-4.3,1-6.7v-30.3h8.8v53.7H-23.3z"/>
			<path class="st45" d="M30.1,398.2c-4,3-9.1,4.6-15.2,4.6c-4.3,0-8-0.7-11.2-2.1c-3.2-1.4-5.8-3.3-7.9-5.8
				c-2.1-2.5-3.8-5.5-4.8-8.9c-1.1-3.5-1.7-7.2-1.8-11.3c0-4.1,0.6-7.8,1.9-11.2c1.2-3.4,3-6.3,5.2-8.8c2.2-2.5,4.9-4.4,8-5.8
				c3.1-1.4,6.5-2.1,10.1-2.1c4.8,0,8.7,1,11.9,3c3.2,2,5.7,4.5,7.6,7.5c1.9,3,3.2,6.4,3.9,10c0.7,3.6,1,7,0.9,10.3H-1.4
				c-0.1,2.4,0.2,4.6,0.8,6.7c0.6,2.1,1.6,4,3,5.6c1.4,1.6,3.2,2.9,5.3,3.9c2.1,1,4.7,1.5,7.6,1.5c3.7,0,6.8-0.9,9.2-2.6
				c2.4-1.7,4-4.4,4.7-7.9h8.7C36.7,390.6,34.1,395.1,30.1,398.2z M28,363.7c-0.8-1.9-1.9-3.5-3.2-4.8c-1.4-1.4-2.9-2.4-4.8-3.2
				c-1.8-0.8-3.9-1.2-6.1-1.2c-2.3,0-4.3,0.4-6.2,1.2c-1.8,0.8-3.4,1.9-4.7,3.3c-1.3,1.4-2.4,3-3.1,4.8c-0.8,1.8-1.2,3.8-1.4,5.9
				h30.9C29.3,367.5,28.8,365.6,28,363.7z"/>
		</g>
	</g>
</g>
</svg>
